<?xml version="1.0" encoding="utf-8"?>
<!-- Generator: Adobe Illustrator 27.5.0, SVG Export Plug-In . SVG Version: 6.00 Build 0)  -->
<svg version="1.1" xmlns="http://www.w3.org/2000/svg" xmlns:xlink="http://www.w3.org/1999/xlink" x="0px" y="0px"
	 viewBox="0 0 750 500" style="enable-background:new 0 0 750 500;" xml:space="preserve">
<g id="BACKGROUND">
	<g>
		<rect y="0" style="fill:#FFFFFF;" width="750" height="500"/>
	</g>
</g>
<g id="OBJECTS">
	<g>
		<g>
			<linearGradient id="SVGID_1_" gradientUnits="userSpaceOnUse" x1="250.3613" y1="110.8369" x2="250.3613" y2="418.4031">
				<stop  offset="0" style="stop-color:#8AB9FD"/>
				<stop  offset="1" style="stop-color:#0056E9"/>
			</linearGradient>
			<polygon style="opacity:0.1;fill:url(#SVGID_1_);" points="353.419,211.39 353.419,169.014 344.56,169.014 344.56,211.39 
				334.304,211.39 334.304,292.077 318.528,292.077 318.528,169.014 286.373,169.014 286.373,225.433 279.936,225.433 
				279.936,131.381 266.217,131.381 266.217,92.748 191.84,92.748 191.84,278.047 174.199,278.047 174.199,178.604 144.148,178.604 
				108.573,214.179 108.573,322.63 94.826,322.63 94.826,444.961 108.573,444.961 108.573,444.963 405.896,444.963 405.896,211.39 
							"/>
			<g>
				
					<linearGradient id="SVGID_00000055693694639089561950000005974923785580054159_" gradientUnits="userSpaceOnUse" x1="108.1349" y1="130.8274" x2="108.1349" y2="160.9796">
					<stop  offset="0" style="stop-color:#8AB9FD"/>
					<stop  offset="1" style="stop-color:#0056E9"/>
				</linearGradient>
				<path style="opacity:0.1;fill:url(#SVGID_00000055693694639089561950000005974923785580054159_);" d="M59.736,160.416h96.798
					c0,0-1.787-22.915-22.404-26.234c-19.677-3.168-27.096,12.841-27.096,12.841s-4.181-8.373-15.415-6.139
					c-10.964,2.18-11.489,12.447-11.489,12.447S64.427,145.607,59.736,160.416z"/>
				
					<linearGradient id="SVGID_00000033353340101925234200000007124627693335753352_" gradientUnits="userSpaceOnUse" x1="644.0451" y1="169.6652" x2="644.0451" y2="198.545">
					<stop  offset="0" style="stop-color:#8AB9FD"/>
					<stop  offset="1" style="stop-color:#0056E9"/>
				</linearGradient>
				<path style="opacity:0.1;fill:url(#SVGID_00000033353340101925234200000007124627693335753352_);" d="M597.689,198.005h92.713
					c0,0-1.712-21.948-21.459-25.127c-18.847-3.034-25.952,12.299-25.952,12.299C626.648,168.686,600.063,178.746,597.689,198.005z"
					/>
				
					<linearGradient id="SVGID_00000162342418547228203920000006486102697252463551_" gradientUnits="userSpaceOnUse" x1="205.121" y1="45.1248" x2="205.121" y2="61.6354">
					<stop  offset="0" style="stop-color:#8AB9FD"/>
					<stop  offset="1" style="stop-color:#0056E9"/>
				</linearGradient>
				<path style="opacity:0.1;fill:url(#SVGID_00000162342418547228203920000006486102697252463551_);" d="M178.619,61.327h53.004
					c0,0-0.979-12.548-12.268-14.365c-10.775-1.735-14.837,7.031-14.837,7.031C195.175,44.565,179.976,50.316,178.619,61.327z"/>
			</g>
		</g>
		<g>
			<g>
				<g>
					<path style="fill:none;stroke:#000000;stroke-width:0.75;stroke-linecap:round;stroke-miterlimit:10;" d="M330.406,101.099
						c4.027-5.239,10.356-8.616,17.475-8.616c12.164,0,22.026,9.861,22.026,22.026"/>
					
						<path style="fill:none;stroke:#000000;stroke-width:0.75;stroke-linecap:round;stroke-linejoin:round;stroke-miterlimit:10;" d="
						M225.849,123.236c0-8.407,6.815-15.222,15.222-15.222c3.202,0,6.173,0.989,8.624,2.677c0-22.601,18.322-40.922,40.922-40.922
						c22.601,0,40.922,18.321,40.922,40.922"/>
					<path style="fill:none;stroke:#000000;stroke-width:0.75;stroke-linecap:round;stroke-miterlimit:10;" d="M351.796,132.619
						c0-10.002,8.108-18.11,18.11-18.11c10.002,0,18.11,8.108,18.11,18.11"/>
				</g>
				<g>
					<g>
						
							<path style="fill:none;stroke:#000000;stroke-width:0.75;stroke-linecap:round;stroke-linejoin:round;stroke-miterlimit:10;" d="
							M28.64,238.266c5.406-18.329,22.361-31.706,42.441-31.706c8.747,0,16.901,2.538,23.766,6.919l-0.005-0.002
							c4.95-11.092,16.076-18.823,29.007-18.823c14.417,0,26.589,9.609,30.462,22.772"/>
						<path style="fill:none;stroke:#000000;stroke-width:0.75;stroke-linecap:round;stroke-miterlimit:10;" d="M141.587,224.002
							c4.258-3.967,9.97-6.395,16.249-6.395c13.167,0,23.841,10.674,23.841,23.841"/>
					</g>
				</g>
			</g>
			<g>
				<g>
					
						<linearGradient id="SVGID_00000154408344938290495890000012012038368050615965_" gradientUnits="userSpaceOnUse" x1="158.2707" y1="111.1017" x2="164.7924" y2="119.1235">
						<stop  offset="0" style="stop-color:#E4816F"/>
						<stop  offset="1" style="stop-color:#E25E52"/>
					</linearGradient>
					<path style="fill:url(#SVGID_00000154408344938290495890000012012038368050615965_);" d="M164.246,115.433
						c-1.666,0-3.017,1.351-3.017,3.02c0,1.666,1.351,3.017,3.017,3.017c1.668,0,3.019-1.351,3.019-3.017
						C167.265,116.785,165.914,115.433,164.246,115.433z M164.246,120.313c-1.027,0-1.86-0.833-1.86-1.86
						c0-1.03,0.833-1.863,1.86-1.863c1.03,0,1.863,0.833,1.863,1.863C166.108,119.48,165.275,120.313,164.246,120.313z"/>
					<path d="M252.404,172.558c0,1.128-0.915,2.043-2.042,2.043c-1.128,0-2.043-0.915-2.043-2.043s0.914-2.042,2.043-2.042
						C251.489,170.515,252.404,171.43,252.404,172.558z"/>
					<path d="M122.499,353.641c0,1.128-0.914,2.043-2.042,2.043c-1.128,0-2.043-0.915-2.043-2.043c0-1.128,0.914-2.043,2.043-2.043
						C121.585,351.599,122.499,352.513,122.499,353.641z"/>
					<path d="M83.87,379.287c0,2.161-1.752,3.913-3.913,3.913c-2.161,0-3.913-1.752-3.913-3.913c0-2.161,1.752-3.913,3.913-3.913
						C82.118,375.374,83.87,377.125,83.87,379.287z"/>
					
						<linearGradient id="SVGID_00000146458066847172023440000015639957216907139209_" gradientUnits="userSpaceOnUse" x1="614.967" y1="244.962" x2="621.4446" y2="251.985">
						<stop  offset="0" style="stop-color:#E4816F"/>
						<stop  offset="1" style="stop-color:#E25E52"/>
					</linearGradient>
					<path style="fill:url(#SVGID_00000146458066847172023440000015639957216907139209_);" d="M622.854,248.477
						c0,2.565-2.08,4.645-4.645,4.645c-2.565,0-4.645-2.08-4.645-4.645c0-2.565,2.08-4.645,4.645-4.645
						C620.774,243.832,622.854,245.912,622.854,248.477z"/>
					<path d="M601.961,156.824c0,2.359-1.912,4.272-4.272,4.272c-2.359,0-4.272-1.913-4.272-4.272s1.912-4.272,4.272-4.272
						C600.048,152.553,601.961,154.465,601.961,156.824z"/>
					<path d="M335.248,150.239c0,1.024-0.83,1.855-1.855,1.855s-1.854-0.83-1.854-1.855c0-1.024,0.83-1.854,1.854-1.854
						S335.248,149.215,335.248,150.239z"/>
					<path d="M453.114,66.666c0,1.364-1.106,2.47-2.47,2.47c-1.364,0-2.47-1.106-2.47-2.47c0-1.364,1.106-2.47,2.47-2.47
						C452.008,64.196,453.114,65.302,453.114,66.666z"/>
					<path d="M330.245,61.498c0,1.724-1.398,3.122-3.122,3.122s-3.122-1.398-3.122-3.122c0-1.724,1.398-3.122,3.122-3.122
						S330.245,59.774,330.245,61.498z"/>
					
						<linearGradient id="SVGID_00000077294012962741141450000002702514319412480677_" gradientUnits="userSpaceOnUse" x1="380.4363" y1="367.9927" x2="385.915" y2="373.4714">
						<stop  offset="0" style="stop-color:#E4816F"/>
						<stop  offset="1" style="stop-color:#E25E52"/>
					</linearGradient>
					<circle style="fill:url(#SVGID_00000077294012962741141450000002702514319412480677_);" cx="383.398" cy="370.954" r="2.552"/>
					<path d="M565.052,205.194c0,1.444-1.171,2.615-2.615,2.615c-1.444,0-2.615-1.171-2.615-2.615c0-1.444,1.171-2.615,2.615-2.615
						C563.881,202.579,565.052,203.75,565.052,205.194z"/>
					
						<linearGradient id="SVGID_00000057121642550703024100000005820553870147046317_" gradientUnits="userSpaceOnUse" x1="59.736" y1="278.6228" x2="68.646" y2="278.6228">
						<stop  offset="0" style="stop-color:#E4816F"/>
						<stop  offset="1" style="stop-color:#E25E52"/>
					</linearGradient>
					<path style="fill:url(#SVGID_00000057121642550703024100000005820553870147046317_);" d="M68.646,278.623
						c0,2.46-1.995,4.455-4.455,4.455c-2.46,0-4.455-1.994-4.455-4.455c0-2.461,1.995-4.455,4.455-4.455
						C66.651,274.168,68.646,276.162,68.646,278.623z"/>
				</g>
			</g>
		</g>
	</g>
	<g>
		<g>
			<g>
				
					<rect x="555.566" y="328.463" transform="matrix(-1 -4.491220e-11 4.491220e-11 -1 1176.744 764.921)" width="65.612" height="107.995"/>
				
					<linearGradient id="SVGID_00000150814212540633115890000004878809049172479390_" gradientUnits="userSpaceOnUse" x1="698.9857" y1="335.9006" x2="698.9857" y2="417.0015" gradientTransform="matrix(-1 0 0 1 1300.2456 0)">
					<stop  offset="0" style="stop-color:#53B0B1"/>
					<stop  offset="1" style="stop-color:#6ACAD8"/>
				</linearGradient>
				<polygon style="fill:url(#SVGID_00000150814212540633115890000004878809049172479390_);" points="563.615,328.463 
					581.444,353.424 578.082,436.458 635.543,436.458 638.905,353.424 621.076,328.463 				"/>
				
					<rect x="616.389" y="436.432" transform="matrix(-1 -4.533452e-11 4.533452e-11 -1 1241.4857 881.3932)" width="8.707" height="8.529"/>
				
					<rect x="563.615" y="436.432" transform="matrix(-1 -4.512580e-11 4.512580e-11 -1 1135.9362 881.3932)" width="8.707" height="8.529"/>
			</g>
			<g>
				
					<rect x="603.829" y="265.704" transform="matrix(-1 -4.463553e-11 4.463553e-11 -1 1210.7152 594.1672)" width="3.056" height="62.759"/>
				
					<rect x="602.187" y="326.349" transform="matrix(-1 -4.488555e-11 4.488555e-11 -1 1210.7152 654.8123)" width="6.342" height="2.114"/>
				
					<rect x="574.5" y="265.704" transform="matrix(-1 -4.522928e-11 4.522928e-11 -1 1152.0566 594.1672)" width="3.056" height="62.759"/>
				
					<rect x="572.857" y="326.349" transform="matrix(-1 -4.488555e-11 4.488555e-11 -1 1152.0568 654.8123)" width="6.342" height="2.114"/>
			</g>
			
				<rect x="570.317" y="263.837" transform="matrix(-1 -4.488022e-11 4.488022e-11 -1 1181.386 533.2087)" width="40.753" height="5.535"/>
			
				<linearGradient id="SVGID_00000176023406585643154870000004049030406182529713_" gradientUnits="userSpaceOnUse" x1="608.6002" y1="442.5889" x2="608.3946" y2="350.6859">
				<stop  offset="0" style="stop-color:#53B0B1"/>
				<stop  offset="1" style="stop-color:#6ACAD8"/>
			</linearGradient>
			<polygon style="fill:url(#SVGID_00000176023406585643154870000004049030406182529713_);" points="638.905,353.424 
				581.444,353.424 578.082,436.458 635.543,436.458 			"/>
			<g>
				<polygon style="fill:none;stroke:#000000;stroke-width:0.3905;stroke-miterlimit:10;" points="622.672,430.874 625.582,359.008 
					631.755,359.008 628.845,430.874 				"/>
				<polygon style="fill:none;stroke:#000000;stroke-width:0.3905;stroke-miterlimit:10;" points="610.192,430.874 613.102,359.008 
					619.275,359.008 616.365,430.874 				"/>
				<polygon style="fill:none;stroke:#000000;stroke-width:0.3905;stroke-miterlimit:10;" points="597.712,430.874 600.622,359.008 
					606.795,359.008 603.885,430.874 				"/>
				<polygon style="fill:none;stroke:#000000;stroke-width:0.3905;stroke-miterlimit:10;" points="585.232,430.874 588.142,359.008 
					594.316,359.008 591.406,430.874 				"/>
			</g>
			
				<line style="fill:none;stroke:#000000;stroke-width:0.75;stroke-linecap:round;stroke-miterlimit:10;" x1="576.028" y1="339.065" x2="625.435" y2="339.065"/>
			<polygon style="fill:#FFFFFF;" points="580.891,344.446 578.34,339.065 577.044,339.065 572.218,346.989 576.391,348.098 
				577.549,340.667 578.082,346.223 			"/>
		</g>
		<g>
			<polygon points="607.949,392.054 672.652,392.054 672.652,405.796 			"/>
			<g>
				
					<linearGradient id="SVGID_00000007400383963233522300000011870000671235980946_" gradientUnits="userSpaceOnUse" x1="634.4022" y1="463.7934" x2="634.4022" y2="413.4395" gradientTransform="matrix(-1 0 0 1 1280.6012 0)">
					<stop  offset="0" style="stop-color:#FF9C00"/>
					<stop  offset="1" style="stop-color:#FFCA00"/>
				</linearGradient>
				<polygon style="fill:url(#SVGID_00000007400383963233522300000011870000671235980946_);" points="619.746,444.961 
					672.652,444.961 672.652,400.011 619.746,392.054 				"/>
			</g>
			<g>
				
					<linearGradient id="SVGID_00000078036460046850904880000017931129001891705523_" gradientUnits="userSpaceOnUse" x1="666.7539" y1="442.663" x2="666.7539" y2="293.5521" gradientTransform="matrix(-1 0 0 1 1280.6012 0)">
					<stop  offset="0" style="stop-color:#FF9C00"/>
					<stop  offset="1" style="stop-color:#FFCA00"/>
				</linearGradient>
				
					<rect x="607.949" y="392.054" style="fill:url(#SVGID_00000078036460046850904880000017931129001891705523_);" width="11.797" height="52.907"/>
			</g>
			
				<linearGradient id="SVGID_00000058578269884440955980000000915272395179884697_" gradientUnits="userSpaceOnUse" x1="651.3687" y1="422.4981" x2="651.3687" y2="332.8001">
				<stop  offset="0" style="stop-color:#FF9C00"/>
				<stop  offset="1" style="stop-color:#FFCA00"/>
			</linearGradient>
			<polygon style="fill:url(#SVGID_00000058578269884440955980000000915272395179884697_);" points="672.652,400.011 
				682.992,412.141 632.218,423.88 619.746,392.054 			"/>
			<g>
				
					<linearGradient id="SVGID_00000132082245416090549120000018168447136479977642_" gradientUnits="userSpaceOnUse" x1="664.3375" y1="415.2065" x2="664.3375" y2="443.6957">
					<stop  offset="0" style="stop-color:#FF9C00;stop-opacity:0.5"/>
					<stop  offset="1" style="stop-color:#FFCA00"/>
				</linearGradient>
				
					<rect x="659.087" y="430.402" style="fill:url(#SVGID_00000132082245416090549120000018168447136479977642_);" width="10.501" height="10.501"/>
			</g>
			<g>
				
					<linearGradient id="SVGID_00000156546335584388436600000015274736846769898636_" gradientUnits="userSpaceOnUse" x1="652.4027" y1="415.2065" x2="652.4027" y2="443.6957">
					<stop  offset="0" style="stop-color:#FF9C00;stop-opacity:0.5"/>
					<stop  offset="1" style="stop-color:#FFCA00"/>
				</linearGradient>
				
					<rect x="647.152" y="435.653" style="fill:url(#SVGID_00000156546335584388436600000015274736846769898636_);" width="10.501" height="5.25"/>
			</g>
		</g>
	</g>
	<g>
		<g>
			
				<linearGradient id="SVGID_00000103947354036283323260000010954076685935841428_" gradientUnits="userSpaceOnUse" x1="118.5558" y1="450.7876" x2="90.0164" y2="376.2359">
				<stop  offset="0" style="stop-color:#53B0B1"/>
				<stop  offset="1" style="stop-color:#6ACAD8"/>
			</linearGradient>
			<path style="fill:url(#SVGID_00000103947354036283323260000010954076685935841428_);" d="M91.696,444.961
				c0,0-27.391-14.559-38.87-46.646c0,0,23.478,5.609,45.391,27.261c0,0-9.13-17.471-10.696-32.217c0,0,12,10.826,19.565,28.174
				c0,0-7.043-21.431-6.261-49.435c0,0,14.217,13.043,24.783,47.384c0,0,1.455-33.822,8.162-48.233v73.715L91.696,444.961z"/>
			
				<linearGradient id="SVGID_00000069357965728988611920000017566317700005165212_" gradientUnits="userSpaceOnUse" x1="387.4863" y1="441.5313" x2="367.1212" y2="388.3329">
				<stop  offset="0" style="stop-color:#53B0B1"/>
				<stop  offset="1" style="stop-color:#6ACAD8"/>
			</linearGradient>
			<path style="fill:url(#SVGID_00000069357965728988611920000017566317700005165212_);" d="M357.783,427.481
				c0,0,15.652-33.973,36.391-49.504c0,0-3.996,27.993-17.063,53.579c0,0,8.846-8.849,22.15-15.501c0,0-6.848,13.796-20.739,28.909
				h-20.739V427.481z"/>
		</g>
		<g>
			
				<linearGradient id="SVGID_00000070119722060282622920000013142230875088999060_" gradientUnits="userSpaceOnUse" x1="195.2787" y1="208.1568" x2="195.2787" y2="294.4191">
				<stop  offset="0" style="stop-color:#8AB9FD"/>
				<stop  offset="1" style="stop-color:#E6EDF6"/>
			</linearGradient>
			
				<rect x="178.169" y="210.058" style="fill:url(#SVGID_00000070119722060282622920000013142230875088999060_);" width="34.219" height="48.443"/>
			
				<linearGradient id="SVGID_00000092423883924690475600000010112053751763141296_" gradientUnits="userSpaceOnUse" x1="249.537" y1="453.7689" x2="249.537" y2="246.4598">
				<stop  offset="0" style="stop-color:#8AB9FD"/>
				<stop  offset="1" style="stop-color:#E6EDF6"/>
			</linearGradient>
			
				<rect x="131.532" y="296.947" style="fill:url(#SVGID_00000092423883924690475600000010112053751763141296_);" width="236.01" height="148.014"/>
			
				<linearGradient id="SVGID_00000006679656609065347900000013296401546058508937_" gradientUnits="userSpaceOnUse" x1="249.537" y1="293.7125" x2="249.537" y2="358.2214">
				<stop  offset="0" style="stop-color:#8AB9FD"/>
				<stop  offset="1" style="stop-color:#E6EDF6"/>
			</linearGradient>
			
				<rect x="131.532" y="296.947" style="fill:url(#SVGID_00000006679656609065347900000013296401546058508937_);" width="236.01" height="17.083"/>
			<polygon points="339.739,240.594 157.624,240.594 105.014,293.446 105.014,304.606 392.349,304.606 392.349,293.446 			"/>
			<rect x="171.967" y="205.194" width="46.623" height="12.832"/>
			
				<linearGradient id="SVGID_00000108987727367992415470000004236778182842657941_" gradientUnits="userSpaceOnUse" x1="195.2787" y1="214.818" x2="195.2787" y2="229.4534">
				<stop  offset="0" style="stop-color:#8AB9FD"/>
				<stop  offset="1" style="stop-color:#E6EDF6"/>
			</linearGradient>
			
				<rect x="178.169" y="218.026" style="fill:url(#SVGID_00000108987727367992415470000004236778182842657941_);" width="34.219" height="3.529"/>
			<g>
				
					<linearGradient id="SVGID_00000126295437403575734320000011588956649506289079_" gradientUnits="userSpaceOnUse" x1="174.197" y1="374.8926" x2="174.197" y2="303.7997">
					<stop  offset="0" style="stop-color:#0025C0"/>
					<stop  offset="1" style="stop-color:#0056E9"/>
				</linearGradient>
				
					<rect x="141.371" y="336.8" style="fill:url(#SVGID_00000126295437403575734320000011588956649506289079_);" width="65.652" height="63.302"/>
				<g>
					
						<linearGradient id="SVGID_00000083802860801406864170000010201792899090529969_" gradientUnits="userSpaceOnUse" x1="141.3709" y1="362.0343" x2="191.8397" y2="362.0343">
						<stop  offset="0" style="stop-color:#0025C0"/>
						<stop  offset="1" style="stop-color:#0056E9"/>
					</linearGradient>
					<polygon style="fill:url(#SVGID_00000083802860801406864170000010201792899090529969_);" points="191.84,336.8 
						141.371,387.269 141.371,366.751 171.322,336.8 					"/>
					
						<linearGradient id="SVGID_00000084516104328245731560000008262961823205974671_" gradientUnits="userSpaceOnUse" x1="171.967" y1="382.5739" x2="207.023" y2="382.5739">
						<stop  offset="0" style="stop-color:#0025C0"/>
						<stop  offset="1" style="stop-color:#0056E9"/>
					</linearGradient>
					<polygon style="fill:url(#SVGID_00000084516104328245731560000008262961823205974671_);" points="207.023,365.046 
						207.023,385.563 192.485,400.102 171.967,400.102 					"/>
					
						<linearGradient id="SVGID_00000000905476687152008960000015629795489138868909_" gradientUnits="userSpaceOnUse" x1="141.3709" y1="368.4509" x2="205.121" y2="368.4509">
						<stop  offset="0" style="stop-color:#0025C0"/>
						<stop  offset="1" style="stop-color:#0056E9"/>
					</linearGradient>
					<polygon style="fill:url(#SVGID_00000000905476687152008960000015629795489138868909_);" points="205.121,336.8 
						141.819,400.102 141.371,400.102 141.371,394.56 199.131,336.8 					"/>
				</g>
				
					<rect x="141.37" y="336.798" style="fill:none;stroke:#FFFFFF;stroke-width:2.1862;stroke-miterlimit:10;" width="65.658" height="63.305"/>
				
					<line style="fill:none;stroke:#FFFFFF;stroke-width:2.1862;stroke-miterlimit:10;" x1="174.199" y1="336.798" x2="174.199" y2="400.103"/>
			</g>
			<g>
				
					<linearGradient id="SVGID_00000153668357299710900720000016833900175956447635_" gradientUnits="userSpaceOnUse" x1="327.3867" y1="374.8926" x2="327.3867" y2="303.7997">
					<stop  offset="0" style="stop-color:#0025C0"/>
					<stop  offset="1" style="stop-color:#0056E9"/>
				</linearGradient>
				
					<rect x="310.974" y="336.8" style="fill:url(#SVGID_00000153668357299710900720000016833900175956447635_);" width="32.826" height="63.302"/>
				<g>
					
						<linearGradient id="SVGID_00000065066882567705658800000001465932556102189225_" gradientUnits="userSpaceOnUse" x1="310.9686" y1="362.0343" x2="343.8056" y2="362.0343">
						<stop  offset="0" style="stop-color:#0025C0"/>
						<stop  offset="1" style="stop-color:#0056E9"/>
					</linearGradient>
					<polygon style="fill:url(#SVGID_00000065066882567705658800000001465932556102189225_);" points="343.806,336.8 
						343.806,354.432 310.969,387.269 310.969,366.751 340.92,336.8 					"/>
					
						<linearGradient id="SVGID_00000031918996294798203900000010952533591362795417_" gradientUnits="userSpaceOnUse" x1="310.9686" y1="380.9123" x2="343.8056" y2="380.9123">
						<stop  offset="0" style="stop-color:#0025C0"/>
						<stop  offset="1" style="stop-color:#0056E9"/>
					</linearGradient>
					<polygon style="fill:url(#SVGID_00000031918996294798203900000010952533591362795417_);" points="343.806,361.723 
						343.806,367.713 311.417,400.102 310.969,400.102 310.969,394.56 					"/>
				</g>
				
					<rect x="310.973" y="336.798" style="fill:none;stroke:#FFFFFF;stroke-width:1.5459;stroke-miterlimit:10;" width="32.829" height="63.305"/>
			</g>
			<g>
				
					<linearGradient id="SVGID_00000117673642465683151740000004585724114017285810_" gradientUnits="userSpaceOnUse" x1="258.9982" y1="401.886" x2="258.9982" y2="280.4106">
					<stop  offset="0" style="stop-color:#0025C0"/>
					<stop  offset="1" style="stop-color:#0056E9"/>
				</linearGradient>
				
					<rect x="231.623" y="336.798" style="fill:url(#SVGID_00000117673642465683151740000004585724114017285810_);" width="54.75" height="108.163"/>
				
					<rect x="238.059" y="345.425" style="fill:none;stroke:#FFFFFF;stroke-width:0.9562;stroke-miterlimit:10;" width="18.157" height="51.647"/>
				
					<rect x="261.78" y="345.425" style="fill:none;stroke:#FFFFFF;stroke-width:0.9562;stroke-miterlimit:10;" width="18.157" height="51.647"/>
				
					<rect x="238.059" y="402.635" style="fill:none;stroke:#FFFFFF;stroke-width:0.9562;stroke-miterlimit:10;" width="18.157" height="33.692"/>
				
					<rect x="261.78" y="402.635" style="fill:none;stroke:#FFFFFF;stroke-width:0.9562;stroke-miterlimit:10;" width="18.157" height="33.692"/>
				<polyline style="fill:none;stroke:#FFFFFF;stroke-width:1.9996;stroke-miterlimit:10;" points="231.623,444.961 
					231.623,336.798 286.373,336.798 286.373,444.961 				"/>
				<path style="fill:#FFFFFF;" d="M282.862,407.659L282.862,407.659c-0.713,0-1.291-0.578-1.291-1.291v-13.03
					c0-0.713,0.578-1.291,1.291-1.291l0,0c0.713,0,1.291,0.578,1.291,1.291v13.03C284.154,407.081,283.576,407.659,282.862,407.659z
					"/>
				
					<line style="fill:none;stroke:#FFFFFF;stroke-width:1.0931;stroke-linecap:round;stroke-miterlimit:10;" x1="282.862" y1="399.853" x2="275.466" y2="399.853"/>
			</g>
			<polyline style="fill:none;stroke:#FFFFFF;stroke-width:0.5466;stroke-miterlimit:10;" points="344.56,248.477 252.516,248.477 
				151.974,248.477 			"/>
			<polyline style="fill:none;stroke:#FFFFFF;stroke-width:0.5466;stroke-miterlimit:10;" points="355.411,259.377 252.516,259.377 
				141.124,259.377 			"/>
			<polyline style="fill:none;stroke:#FFFFFF;stroke-width:0.5466;stroke-miterlimit:10;" points="366.428,270.277 252.516,270.277 
				130.106,270.277 			"/>
			<polyline style="fill:none;stroke:#FFFFFF;stroke-width:0.5466;stroke-miterlimit:10;" points="377.111,281.177 252.516,281.177 
				119.423,281.177 			"/>
			<polyline style="fill:none;stroke:#FFFFFF;stroke-width:0.5466;stroke-miterlimit:10;" points="387.961,292.077 252.516,292.077 
				108.573,292.077 			"/>
			<rect x="128.11" y="304.606" width="3.422" height="140.357"/>
			<rect x="367.542" y="304.606" width="3.422" height="140.357"/>
		</g>
		<g>
			<g>
				<rect x="117.75" y="407.315" width="7.958" height="37.646"/>
				<rect x="134.511" y="407.315" width="7.958" height="37.646"/>
				<rect x="151.271" y="407.315" width="7.958" height="37.646"/>
				<rect x="168.031" y="407.315" width="7.958" height="37.646"/>
				<rect x="184.792" y="407.315" width="7.958" height="37.646"/>
			</g>
			<rect x="113.902" y="413.967" width="82.696" height="4.957"/>
			<g>
				<circle style="fill:#FFFFFF;" cx="121.729" cy="416.446" r="1.011"/>
				<circle style="fill:#FFFFFF;" cx="138.49" cy="416.446" r="1.011"/>
				<circle style="fill:#FFFFFF;" cx="155.25" cy="416.446" r="1.011"/>
				<circle style="fill:#FFFFFF;" cx="172.011" cy="416.446" r="1.011"/>
				<circle style="fill:#FFFFFF;" cx="188.771" cy="416.446" r="1.011"/>
			</g>
		</g>
		<g>
			
				<linearGradient id="SVGID_00000182488045231043380900000001916088298999185565_" gradientUnits="userSpaceOnUse" x1="185.0627" y1="359.6833" x2="327.3693" y2="359.6833" gradientTransform="matrix(1.0189 -0.0458 0.0358 1.0005 -19.113 11.9675)">
				<stop  offset="0" style="stop-color:#0025C0"/>
				<stop  offset="1" style="stop-color:#0056E9"/>
			</linearGradient>
			<path style="fill:url(#SVGID_00000182488045231043380900000001916088298999185565_);" d="M191.414,394.718l-8.792-31.764
				c-1.701-6.144,1.902-12.503,8.045-14.204l113.351-31.373c6.144-1.701,12.503,1.902,14.204,8.046l8.792,31.764
				c1.701,6.144-1.902,12.503-8.045,14.204l-113.351,31.373C199.474,404.464,193.114,400.862,191.414,394.718z"/>
			<path style="fill:#FFFFFF;" d="M206.627,397.443c-6.133,1.434-12.289-2.39-13.723-8.523l-7.556-32.326
				c-1.434-6.133,2.39-12.289,8.523-13.723l111.935-26.165c6.133-1.434,12.289,2.39,13.723,8.523l7.556,32.326
				c1.434,6.133-2.39,12.289-8.523,13.723L206.627,397.443z"/>
			<path style="fill:#FFFFFF;" d="M317.424,366.41l-111.935,26.165c-3.454,0.807-6.909-1.338-7.716-4.792l-7.556-32.327
				c-0.807-3.454,1.338-6.909,4.792-7.716l111.935-26.165c3.454-0.807,6.909,1.338,7.716,4.792l7.556,32.327
				C323.024,362.148,320.878,365.602,317.424,366.41z"/>
			
				<linearGradient id="SVGID_00000080887066005261449940000006729358643280334008_" gradientUnits="userSpaceOnUse" x1="254.0872" y1="380.376" x2="254.0872" y2="333.2823" gradientTransform="matrix(0.9738 -0.2276 0.2276 0.9738 -72.4214 67.446)">
				<stop  offset="0" style="stop-color:#E4816F"/>
				<stop  offset="1" style="stop-color:#E25E52"/>
			</linearGradient>
			
				<path style="fill:none;stroke:url(#SVGID_00000080887066005261449940000006729358643280334008_);stroke-width:1.0501;stroke-miterlimit:10;" d="
				M317.424,366.41l-111.935,26.165c-3.454,0.807-6.909-1.338-7.716-4.792l-7.556-32.327c-0.807-3.454,1.338-6.909,4.792-7.716
				l111.935-26.165c3.454-0.807,6.909,1.338,7.716,4.792l7.556,32.327C323.024,362.148,320.878,365.602,317.424,366.41z"/>
		</g>
	</g>
	<g>
		<g>
			<g>
				
					<linearGradient id="SVGID_00000137837618840390092400000011109954584319936661_" gradientUnits="userSpaceOnUse" x1="379.9853" y1="168.7759" x2="413.8789" y2="185.8184">
					<stop  offset="0" style="stop-color:#E9A781"/>
					<stop  offset="1" style="stop-color:#E48B6E"/>
				</linearGradient>
				<path style="fill:url(#SVGID_00000137837618840390092400000011109954584319936661_);" d="M395.125,174.355
					c0,0-1.554-0.712-2.242-2.46c-0.689-1.748-1.695-4.706-2.191-6.938c-0.583-2.622-0.414-6.788-0.871-7.619
					c-0.678-1.236-3.718-0.923-4.136,2.395c-0.564,4.482-0.656,8.618-0.656,8.618l-1.631,18.749c0,0,2.326,1.323,5.988-0.04
					l17.764,8.984l6.424-13.538C401.972,177.726,395.125,174.355,395.125,174.355z"/>
			</g>
			
				<linearGradient id="SVGID_00000181068730039439410900000017901301019565402001_" gradientUnits="userSpaceOnUse" x1="535.7993" y1="409.1769" x2="477.0758" y2="314.1982">
				<stop  offset="0" style="stop-color:#E9A781"/>
				<stop  offset="1" style="stop-color:#E48B6E"/>
			</linearGradient>
			<path style="fill:url(#SVGID_00000181068730039439410900000017901301019565402001_);" d="M479.025,358.162l51.246,62.888
				l15.359-10.669c0,0-25.201-49.098-31.862-57.191c-6.104-7.417-11.597-9.91-11.597-9.91l-0.781-31.117l-34.924,4.304l5.519,26.866
				C473.104,348.771,475.519,353.858,479.025,358.162z"/>
			
				<linearGradient id="SVGID_00000078726543406239982660000017470306180935953804_" gradientUnits="userSpaceOnUse" x1="466.4688" y1="319.093" x2="501.5188" y2="319.093">
				<stop  offset="0" style="stop-color:#E9A781"/>
				<stop  offset="1" style="stop-color:#E48B6E"/>
			</linearGradient>
			<path style="fill:url(#SVGID_00000078726543406239982660000017470306180935953804_);" d="M501.519,317.463
				c-3.7,1.96-25.61,6.9-33.09,8.56l-1.96-9.56l34.92-4.3L501.519,317.463z"/>
			
				<linearGradient id="SVGID_00000173861081291005813370000002734555020264801686_" gradientUnits="userSpaceOnUse" x1="431.9444" y1="416.6467" x2="440.1146" y2="322.1786">
				<stop  offset="0" style="stop-color:#E9A781"/>
				<stop  offset="1" style="stop-color:#E48B6E"/>
			</linearGradient>
			<path style="fill:url(#SVGID_00000173861081291005813370000002734555020264801686_);" d="M426.498,310.114l-3.904,19.566
				c-0.946,4.742-1.646,9.53-2.098,14.344l-7.512,80.14l21.042,3.4c0,0,15.544-57.883,17.368-68.028
				c1.668-9.28,0.035-15.501,0.035-15.501l7.505-27.762L426.498,310.114z"/>
			<polygon style="fill:#E69183;" points="413.419,419.583 416.279,424.693 412.989,424.163 			"/>
			
				<linearGradient id="SVGID_00000044866271987542756270000015809491479760268933_" gradientUnits="userSpaceOnUse" x1="424.3988" y1="315.907" x2="458.9388" y2="315.907">
				<stop  offset="0" style="stop-color:#E9A781"/>
				<stop  offset="1" style="stop-color:#E48B6E"/>
			</linearGradient>
			<path style="fill:url(#SVGID_00000044866271987542756270000015809491479760268933_);" d="M458.939,316.273l-1.44,5.33
				c-4.67,0.39-23.67-0.48-33.1-0.94l2.1-10.55L458.939,316.273z"/>
			
				<linearGradient id="SVGID_00000140732092754577390460000002082255753142470025_" gradientUnits="userSpaceOnUse" x1="465.9188" y1="260.5329" x2="465.9188" y2="325.0746">
				<stop  offset="0" style="stop-color:#0025C0"/>
				<stop  offset="1" style="stop-color:#0056E9"/>
			</linearGradient>
			<path style="fill:url(#SVGID_00000140732092754577390460000002082255753142470025_);" d="M508.369,314.013l-42.67,5.23l-1.4-9.48
				l-1.71,9.27c-16.85-3.14-30.54-5.86-39.12-7.62l14.93-66.53l54.71-0.63c0,0,7.77,12.13,9.76,24.64
				C504.039,276.293,506.499,297.363,508.369,314.013z"/>
			
				<linearGradient id="SVGID_00000067924519936118342310000005204188841071023516_" gradientUnits="userSpaceOnUse" x1="497.6668" y1="252.8541" x2="497.6668" y2="169.0047">
				<stop  offset="0" style="stop-color:#0025C0"/>
				<stop  offset="1" style="stop-color:#0056E9"/>
			</linearGradient>
			<path style="fill:url(#SVGID_00000067924519936118342310000005204188841071023516_);" d="M507.652,168.098l4.745,6.717
				l2.168,63.848c0,0-13.443,11.707-31.968,9.161c-9.356-2.348,20.229-78.14,20.229-78.14L507.652,168.098z"/>
			
				<linearGradient id="SVGID_00000140717238851065255080000000999378057418909312_" gradientUnits="userSpaceOnUse" x1="469.4138" y1="265.7524" x2="469.4138" y2="131.1798">
				<stop  offset="0" style="stop-color:#A939F8"/>
				<stop  offset="1" style="stop-color:#E559FF"/>
			</linearGradient>
			<path style="fill:url(#SVGID_00000140717238851065255080000000999378057418909312_);" d="M521.359,233.058l-15.918-12.162
				c3.195-4.625,7.379-10.804,7.379-10.804l-14.763-10.683c0,0-0.47,5.08-1.111,14.375c1.509,15.266,4.672,46.071,4.672,46.071
				s-16.488,8.729-38.192,7.683c-13.678-0.664-26.491-6.644-29.791-10.881c3.684-15.779,7.333-30.898,11.658-52.13
				c0,0-9.43,8.389-14.543,8.407c-7.369,0.025-21.406-7.977-30.029-12.721l10.704-19.329c5.826,2.429,14.843,6.349,18.426,7.906
				c2.091-0.294,18.002-20.844,20.539-22.009c3.125-1.448,26.616-3.365,26.616-3.365s23.788,3.309,26.628,4.839
				c2.41,1.298,32.949,27.683,34.408,36.442C539.04,210.687,528.346,225.117,521.359,233.058z"/>
			
				<linearGradient id="SVGID_00000013167521207733555730000006022257925967433914_" gradientUnits="userSpaceOnUse" x1="479.1482" y1="243.8804" x2="479.1482" y2="168.9086">
				<stop  offset="0" style="stop-color:#0025C0"/>
				<stop  offset="1" style="stop-color:#0056E9"/>
			</linearGradient>
			<path style="fill:url(#SVGID_00000013167521207733555730000006022257925967433914_);" d="M507.652,168.098
				c-4.5-3.359-13.207-3.163-17.348-3.326c0,0-13.679,29.275-16.231,32.344c0,0-6.937-30.135-8.372-33.41
				c-5.373,0.275-11.077,1.021-15.058,2.33c0,0,5.258,20.238,18.435,38.891l-3.59,11.964c0,0,9.783,0.89,15.946,0
				c0,0-1.595-5.639-3.16-10.694C486.868,198.839,503.897,181.965,507.652,168.098z"/>
			<path style="fill:none;stroke:#1C1C23;stroke-width:0.25;stroke-linecap:round;stroke-linejoin:round;stroke-miterlimit:10;" d="
				M463.728,165.815c0,0,3.95,20.408,10.076,34.139c0,0,13.349-18.813,17.99-32.9"/>
			<path style="fill:none;stroke:#1C1C23;stroke-width:0.25;stroke-linecap:round;stroke-linejoin:round;stroke-miterlimit:10;" d="
				M458.446,165.815c0,0,5.87,25.435,14.576,37.943c0,0,16.627-12.928,25.042-36.946"/>
			<path style="fill:none;stroke:#1C1C23;stroke-width:0.25;stroke-linecap:round;stroke-miterlimit:10;" d="M454.239,168.098
				c0,0,8.853,27.897,18.342,38.315c0,0,13.057-7.533,25.482-26.217"/>
			
				<path style="fill:none;stroke:#1C1C23;stroke-width:0.5445;stroke-linecap:round;stroke-linejoin:round;stroke-miterlimit:10;" d="
				M523.653,205.844c-7.612,0.313-10.218,3.858-10.218,3.858s0.765-3.719,3.962-5.943"/>
			
				<linearGradient id="SVGID_00000176041753001865262260000003851428438158041985_" gradientUnits="userSpaceOnUse" x1="471.8342" y1="125.1656" x2="473.9406" y2="166.3358">
				<stop  offset="0" style="stop-color:#E9A781"/>
				<stop  offset="1" style="stop-color:#E48B6E"/>
			</linearGradient>
			<path style="fill:url(#SVGID_00000176041753001865262260000003851428438158041985_);" d="M456.451,132.342
				c0,0-0.452,18.405,3.908,23.505c2.928,3.426,9.028,2.128,11.082,1.061l-1.425,7.06c0,0,1.373,4.972,7.799,5.138
				c6.651,0.172,8.194-4.363,8.194-4.363l-2.101-10.781c0,0,7.564-15.492,2.828-27.548
				C482.722,116.196,456.413,113.706,456.451,132.342z"/>
			<path style="fill:#1C1C23;" d="M446.841,120.085c0.247-2.147,1.214-2.856,2.701-1.968c1.295,0.773,2.479,2.173,5.581,3.672
				c2.215-9.611,16.888-12.844,21.899-9.43c6.072,4.136,8.416,8.833,8.416,8.833s7.061,0.257,9.419,7.409
				c3.389,10.296-10.952,25.362-10.952,25.362l-2.436-9.652c3.338-0.683,4.562-7.487,1.714-9.562
				c-1.662-1.224-3.119-0.374-3.969,0.619l-0.992-3.956c0,0-11.541,8.195-18.144,0.663c-1.318-0.361-2.49-0.814-3.556-1.323
				c-0.044,0.514-0.074,1.04-0.074,1.59c0,0-0.009,0.877-0.009,2.268c-4.266-0.874-4.879-3.405-4.419-5.833
				C447.416,126.614,446.603,123.28,446.841,120.085z"/>
			
				<linearGradient id="SVGID_00000046304847383433836370000011895999245954161297_" gradientUnits="userSpaceOnUse" x1="507.6532" y1="424.4943" x2="561.7042" y2="424.4943">
				<stop  offset="0" style="stop-color:#E4816F"/>
				<stop  offset="1" style="stop-color:#E25E52"/>
			</linearGradient>
			<path style="fill:url(#SVGID_00000046304847383433836370000011895999245954161297_);" d="M543.054,404.06
				c0,0,14.075-1.232,18.65,11.576l-21.378,29.325h-32.64c0,0-1.631-16.242,18.127-17.548l-0.144-10.455L543.054,404.06z"/>
			<path style="fill:#FFFFFF;" d="M562.777,414.245l-22.448,30.718h-32.64c0,0-0.721-2.121,0.24-3.9h30.73l21.12-29.31
				C560.65,412.141,562.044,412.899,562.777,414.245z"/>
			
				<linearGradient id="SVGID_00000072992322061727699130000009857961418689362312_" gradientUnits="userSpaceOnUse" x1="378.9313" y1="433.0051" x2="439.1556" y2="433.0051">
				<stop  offset="0" style="stop-color:#E4816F"/>
				<stop  offset="1" style="stop-color:#E25E52"/>
			</linearGradient>
			<path style="fill:url(#SVGID_00000072992322061727699130000009857961418689362312_);" d="M434.348,424.139
				c0,0,6.815,5.709,4.217,20.822h-59.626c0,0-0.651-9.544,9.784-13.811c7.778-3.18,14.739-3.109,14.739-3.109l9.011-6.991
				L434.348,424.139z"/>
			<path style="fill:#FFFFFF;" d="M439.049,441.063c0.451,1.111,0.582,2.611,0.142,3.9h-60.252c0,0-0.743-2.822,0.51-3.9H439.049z"
				/>
			<path style="fill:none;stroke:#1C1C23;stroke-width:0.5445;stroke-linecap:round;stroke-miterlimit:10;" d="M488.295,166.859
				c0,0-2.784,6.196-11.329,5.667c-8.08-0.5-9.019-7.192-9.019-7.192"/>
			<path style="fill:#E69183;" d="M471.44,156.908c0,0,4.219-2.395,5.941-5.13c0,0-0.835,4.741-6.616,8.471L471.44,156.908z"/>
			<g>
				<path style="fill:#1C1C23;" d="M387.836,188.554l-12.141,1.384c-0.942,0.107-1.785-0.586-1.861-1.531l-2.9-35.792
					c-0.073-0.902,0.583-1.699,1.482-1.802l12.141-1.384c0.942-0.107,1.785,0.586,1.861,1.531l2.9,35.792
					C389.391,187.655,388.735,188.452,387.836,188.554z"/>
				
					<linearGradient id="SVGID_00000022554715326158789230000010846079435317908891_" gradientUnits="userSpaceOnUse" x1="381.4895" y1="172.6389" x2="372.6199" y2="119.6823">
					<stop  offset="0" style="stop-color:#8AB9FD"/>
					<stop  offset="1" style="stop-color:#E6EDF6"/>
				</linearGradient>
				<path style="fill:url(#SVGID_00000022554715326158789230000010846079435317908891_);" d="M388.5,186.82
					c0.044,0.468-0.294,0.871-0.751,0.926l-10.437,1.194c-0.229,0.022-0.468-0.043-0.643-0.196
					c-0.185-0.142-0.294-0.359-0.316-0.588l-2.897-35.796c-0.043-0.468,0.294-0.871,0.762-0.926l10.426-1.194h0.098
					c0.207,0,0.392,0.065,0.545,0.196c0.185,0.142,0.294,0.359,0.316,0.588L388.5,186.82z"/>
			</g>
			<g>
				
					<linearGradient id="SVGID_00000116210511823891931980000011756540020113039283_" gradientUnits="userSpaceOnUse" x1="377.8777" y1="432.4152" x2="377.8777" y2="294.6521" gradientTransform="matrix(0.7588 -0.6513 0.6513 0.7588 -8.9736 233.8411)">
					<stop  offset="0" style="stop-color:#FF9C00"/>
					<stop  offset="1" style="stop-color:#FFCA00"/>
				</linearGradient>
				<path style="fill:url(#SVGID_00000116210511823891931980000011756540020113039283_);" d="M566.665,269.211
					c-0.77,8.649-5.126,17.337-13.066,26.064l11.337,13.21l-11.794,10.123l-11.034-12.856c-6.091,4.679-12.51,8.417-19.263,11.206
					c-6.752,2.794-12.821,4.315-18.204,4.564l-5.863-19.957c4.878-0.361,9.964-1.516,15.255-3.465
					c5.293-1.947,10.232-4.547,14.815-7.798l-16.905-19.697c-6.731,3.456-12.732,6.01-18.001,7.665
					c-5.271,1.655-10.569,2.004-15.897,1.047c-5.328-0.958-10.252-4.071-14.774-9.34c-5.601-6.526-8.031-14.168-7.289-22.931
					c0.742-8.76,5.157-17.499,13.243-26.216l-11.236-13.092l11.794-10.123l11.034,12.856c10.347-7.514,20.385-11.965,30.118-13.355
					l6.554,19.569c-8.798,1.681-16.569,4.798-23.311,9.354l17.209,20.052c6.584-3.464,12.475-6.027,17.672-7.691
					c5.197-1.66,10.46-2.012,15.788-1.056c5.328,0.958,10.219,4.032,14.673,9.222C565.053,253.014,567.435,260.562,566.665,269.211z
					 M487.842,255.648c2.572-0.023,5.647-0.818,9.219-2.384l-14.374-16.748c-2.382,3.272-3.621,6.282-3.721,9.03
					c-0.098,2.749,0.729,5.145,2.483,7.188C483.138,254.702,485.268,255.674,487.842,255.648z M543.975,271.173
					c0.2-2.631-0.543-4.928-2.231-6.894c-1.685-1.964-3.797-2.952-6.332-2.963c-2.534-0.008-5.583,0.695-9.145,2.113l13.969,16.276
					C542.528,276.647,543.774,273.803,543.975,271.173z"/>
			</g>
			
				<linearGradient id="SVGID_00000069394914055420932560000013717516763193954433_" gradientUnits="userSpaceOnUse" x1="484.3225" y1="249.3591" x2="512.9183" y2="222.5506">
				<stop  offset="0" style="stop-color:#E9A781"/>
				<stop  offset="1" style="stop-color:#E48B6E"/>
			</linearGradient>
			<path style="fill:url(#SVGID_00000069394914055420932560000013717516763193954433_);" d="M506.008,221.34
				c0,0-7.207,11.022-8.521,11.518c-1.023,0.385-3.124,0.124-4.738,0.157l-0.008-0.002c0,0-6.099-0.013-6.784,0
				c-1.385,0.026-2.184,2.21-0.106,3.222c0.716,0.349,2.622,0.871,4.426,1.323c-1.762,0.858-3.345,1.664-4.699,2.328
				c-0.781,0.938-0.535,3.767,1.115,4.423c0,0-0.65,1.215,0.34,2.472c0.819,1.04,2.204,1.179,2.204,1.179s-0.399,0.95,0.299,1.937
				c0.752,1.064,2.091,1.029,2.091,1.029s0.111,0.899,1.692,1.388c3.611,1.118,9.515-4.637,10.523-6.535
				c1.022-1.924,2.49-4.673,3.103-5.737c3.018-2.77,10.715-9.812,10.715-9.812L506.008,221.34z"/>
			<path style="fill:#E69183;" d="M517.659,230.233c0,0-1.29,1.18-3.02,2.76l-9.06-10.99c0.27-0.42,0.43-0.66,0.43-0.66
				L517.659,230.233z"/>
			
				<linearGradient id="SVGID_00000085948741237999474980000002165284515161362575_" gradientUnits="userSpaceOnUse" x1="375.5357" y1="177.625" x2="409.4293" y2="194.6676">
				<stop  offset="0" style="stop-color:#E9A781"/>
				<stop  offset="1" style="stop-color:#E48B6E"/>
			</linearGradient>
			<path style="fill:url(#SVGID_00000085948741237999474980000002165284515161362575_);" d="M378.285,177.9
				c1.416-0.414,2.08-2.853,0.305-3.899c-0.283-0.174-1.546-0.436-2.309-0.49c2.777-1.078,2.156-4.705-0.762-4.835
				c-0.992-0.05-2.206-0.027-3.288-0.053l-0.147-1.811c0,0-0.673,0.539-1.536,1.916c-0.952,1.521-0.363,3.387-0.363,3.387
				l0.011-0.009c0.242,1.044,1.109,1.624,1.109,1.624s-0.775,0.191-1.07,1.095c-0.305,0.904,0.104,2.542,0.847,3.441
				c0,0-0.495,0.467-0.582,1.338c-0.098,0.871,0.712,2.494,1.48,2.882c0,0-0.92,1.554,0.953,3.078
				c1.959,0.834,4.601,0.08,5.766-0.585c1.274-0.719,0.436-2.69-0.577-3.322c0.109-0.065,0.686-0.523,0.784-0.599
				C380.049,180.089,379.189,178.238,378.285,177.9z"/>
			
				<linearGradient id="SVGID_00000128473653605753741370000002629143508603612313_" gradientUnits="userSpaceOnUse" x1="449.2215" y1="189.7675" x2="437.9875" y2="215.0441">
				<stop  offset="0" style="stop-color:#A939F8"/>
				<stop  offset="1" style="stop-color:#E559FF"/>
			</linearGradient>
			<path style="fill:url(#SVGID_00000128473653605753741370000002629143508603612313_);" d="M449.153,184.641l-3.86,19.886
				c0,0-3.779,3.354-7.852,5.826L449.153,184.641z"/>
			
				<linearGradient id="SVGID_00000080183617636043773790000009695092759698732717_" gradientUnits="userSpaceOnUse" x1="461.0924" y1="290.0444" x2="463.7733" y2="310.7252">
				<stop  offset="0" style="stop-color:#0025C0"/>
				<stop  offset="1" style="stop-color:#0056E9"/>
			</linearGradient>
			<polygon style="fill:url(#SVGID_00000080183617636043773790000009695092759698732717_);" points="464.296,309.765 
				462.691,286.686 460.304,291.098 462.723,318.307 			"/>
			<path d="M426.329,423.006c0,0,3.098,10.71,12.694,12.533c0,0,1.443-7.605-4.115-13.112L426.329,423.006z"/>
			<path d="M536.983,408.564c0,0,9.2,0.883,17.477-1.848c0,0-3.302-5.593-12.624-4.475L536.983,408.564z"/>
			
				<linearGradient id="SVGID_00000023980859325144074120000011705635266104509064_" gradientUnits="userSpaceOnUse" x1="479.1482" y1="129.4272" x2="507.3851" y2="129.4272">
				<stop  offset="0" style="stop-color:#A939F8"/>
				<stop  offset="1" style="stop-color:#E559FF"/>
			</linearGradient>
			<path style="fill:url(#SVGID_00000023980859325144074120000011705635266104509064_);" d="M479.148,127.989
				c0,0,5.635,9.542,19.916,9.068c7.946-0.264,10.912-8.901,5.751-12.916c-3.522-2.739-5.674-0.88-11.399-1.586
				c-1.313-0.162-6.284-0.221-7.961-0.775"/>
			
				<linearGradient id="SVGID_00000140701302813664100200000018348881065731189930_" gradientUnits="userSpaceOnUse" x1="455.1231" y1="118.3434" x2="495.6711" y2="118.3434">
				<stop  offset="0" style="stop-color:#A939F8"/>
				<stop  offset="1" style="stop-color:#E559FF"/>
			</linearGradient>
			<path style="fill:url(#SVGID_00000140701302813664100200000018348881065731189930_);" d="M455.123,121.789
				c0,0,1.909,4.788,13.206,7.631c11.596,2.917,20.941,2.349,24.709,0.744c1.524-0.649,2.542-2.096,2.618-3.751
				c0.233-5.104-2.09-16.553-14.393-20.028C461.957,100.931,455.668,115.722,455.123,121.789z"/>
			<path style="fill:#1C1C23;" d="M460.745,123.114c0,0,4.842,3.212,11.688,3.674c0,0,1.675-6.012-4.172-7.603
				C462.587,117.64,460.745,123.114,460.745,123.114z"/>
		</g>
		<g>
			<g>
				
					<linearGradient id="SVGID_00000106835520783966930810000012728538751611253666_" gradientUnits="userSpaceOnUse" x1="546.9865" y1="150.8638" x2="566.238" y2="88.9839" gradientTransform="matrix(0.9796 0.201 -0.201 0.9796 37.8984 -108.3379)">
					<stop  offset="0" style="stop-color:#0025C0"/>
					<stop  offset="1" style="stop-color:#0056E9"/>
				</linearGradient>
				<path style="fill:url(#SVGID_00000106835520783966930810000012728538751611253666_);" d="M590.361,107.388
					c-2.166-6.577-7.01-12.018-14.398-16.172c-6.987-3.929-13.797-5.222-20.238-3.842c-6.445,1.378-12.158,5.409-16.984,11.977
					l-1.043,1.421l11.253,8.215l1.048-1.329c3.331-4.223,6.761-6.789,10.192-7.627c3.42-0.836,6.731-0.317,10.118,1.588
					c3.508,1.972,5.745,4.723,6.839,8.406c1.087,3.664,0.789,6.916-0.914,9.943c-0.922,1.64-2.13,2.892-3.693,3.827
					c-1.64,0.983-4.684,1.954-9.046,2.886c-4.701,1.006-7.993,1.875-10.068,2.66c-2.854,1.092-5.278,2.462-7.192,4.061
					c-2.555,2.096-4.887,5.004-6.932,8.641c-0.336,0.598-0.825,1.504-1.463,2.718l-0.796,1.512l11.475,6.452l0.873-1.488
					c1.966-3.351,3.571-5.67,4.773-6.891c1.148-1.169,2.42-2.077,3.781-2.698c1.44-0.658,4.283-1.448,8.447-2.349
					c6.67-1.438,11.447-3.083,14.609-5.026c3.202-1.97,5.791-4.686,7.695-8.072C591.985,120.352,592.546,114.023,590.361,107.388z"
					/>
				
					<linearGradient id="SVGID_00000171691264716414031890000009930586020027662242_" gradientUnits="userSpaceOnUse" x1="546.4145" y1="150.6858" x2="565.666" y2="88.806" gradientTransform="matrix(0.9796 0.201 -0.201 0.9796 37.8984 -108.3379)">
					<stop  offset="0" style="stop-color:#0025C0"/>
					<stop  offset="1" style="stop-color:#0056E9"/>
				</linearGradient>
				<polygon style="fill:url(#SVGID_00000171691264716414031890000009930586020027662242_);" points="527.782,162.431 
					539.502,169.02 546.091,157.302 534.372,150.712 				"/>
			</g>
			<g>
				
					<linearGradient id="SVGID_00000013181036765034609500000009080048730546254733_" gradientUnits="userSpaceOnUse" x1="429.5027" y1="143.6483" x2="404.8343" y2="79.2082">
					<stop  offset="0" style="stop-color:#0025C0"/>
					<stop  offset="1" style="stop-color:#0056E9"/>
				</linearGradient>
				<path style="fill:url(#SVGID_00000013181036765034609500000009080048730546254733_);" d="M425.25,85.628
					c-4.369-2.508-9.637-3.1-15.656-1.758c-5.692,1.269-10.008,3.879-12.825,7.756c-2.819,3.879-3.954,8.838-3.374,14.74
					l0.126,1.276l10.085-1.022l-0.079-1.229c-0.249-3.906,0.361-6.962,1.811-9.083c1.445-2.115,3.49-3.443,6.25-4.058
					c2.858-0.637,5.406-0.235,7.789,1.227c2.369,1.455,3.788,3.361,4.338,5.828c0.298,1.336,0.252,2.601-0.139,3.867
					c-0.411,1.329-1.586,3.334-3.495,5.959c-2.056,2.829-3.416,4.9-4.158,6.334c-1.015,1.979-1.661,3.898-1.92,5.694
					c-0.365,2.377-0.214,5.084,0.447,8.048c0.109,0.487,0.284,1.215,0.529,2.183l0.304,1.205l9.349-2.084l-0.25-1.23
					c-0.565-2.77-0.822-4.806-0.766-6.051c0.053-1.191,0.301-2.3,0.736-3.298c0.46-1.056,1.615-2.865,3.432-5.377
					c2.912-4.02,4.7-7.233,5.466-9.822c0.776-2.623,0.858-5.352,0.243-8.111C432.431,91.858,429.658,88.159,425.25,85.628z"/>
				
					<linearGradient id="SVGID_00000142138827393645856630000006487626752872029320_" gradientUnits="userSpaceOnUse" x1="424.0278" y1="145.7442" x2="399.3593" y2="81.3041">
					<stop  offset="0" style="stop-color:#0025C0"/>
					<stop  offset="1" style="stop-color:#0056E9"/>
				</linearGradient>
				<polygon style="fill:url(#SVGID_00000142138827393645856630000006487626752872029320_);" points="418.122,145.846 
					427.67,143.717 425.542,134.17 415.994,136.298 				"/>
			</g>
			<g>
				
					<linearGradient id="SVGID_00000097467528053183786630000004211394806437718707_" gradientUnits="userSpaceOnUse" x1="517.9536" y1="98.4624" x2="501.0994" y2="54.4352" gradientTransform="matrix(0.8781 0.4786 -0.4786 0.8781 88.6629 -241.0007)">
					<stop  offset="0" style="stop-color:#0025C0"/>
					<stop  offset="1" style="stop-color:#0056E9"/>
				</linearGradient>
				<path style="fill:url(#SVGID_00000097467528053183786630000004211394806437718707_);" d="M512.753,57.131
					c-1.801-2.933-4.768-5.01-8.817-6.173c-3.83-1.1-7.272-0.945-10.23,0.46c-2.959,1.405-5.262,4.009-6.844,7.739l-0.342,0.807
					l6.384,2.685l0.355-0.763c1.128-2.425,2.493-4.059,4.056-4.857c1.559-0.796,3.22-0.924,5.076-0.391
					c1.923,0.552,3.32,1.626,4.271,3.283c0.945,1.648,1.174,3.255,0.697,4.914c-0.258,0.899-0.699,1.643-1.348,2.274
					c-0.681,0.663-2.042,1.482-4.045,2.432c-2.159,1.025-3.651,1.822-4.565,2.44c-1.256,0.855-2.271,1.795-3.014,2.788
					c-0.996,1.307-1.791,2.98-2.363,4.974c-0.094,0.328-0.227,0.822-0.396,1.482l-0.212,0.822l6.29,1.807l0.252-0.82
					c0.567-1.846,1.078-3.152,1.519-3.88c0.421-0.697,0.933-1.282,1.52-1.738c0.621-0.483,1.906-1.191,3.817-2.104
					c3.062-1.46,5.184-2.802,6.491-4.105c1.323-1.32,2.264-2.93,2.798-4.786C515.023,63.216,514.569,60.09,512.753,57.131z"/>
				
					<linearGradient id="SVGID_00000011743899201784706920000012658278771999466388_" gradientUnits="userSpaceOnUse" x1="514.0752" y1="99.6417" x2="497.221" y2="55.6144" gradientTransform="matrix(0.8781 0.4786 -0.4786 0.8781 88.6629 -241.0007)">
					<stop  offset="0" style="stop-color:#0025C0"/>
					<stop  offset="1" style="stop-color:#0056E9"/>
				</linearGradient>
				<polygon style="fill:url(#SVGID_00000011743899201784706920000012658278771999466388_);" points="488.787,90.638 
					495.211,92.483 497.056,86.059 490.632,84.214 				"/>
			</g>
		</g>
	</g>
	<g>
		
			<line style="fill:none;stroke:#000000;stroke-linecap:round;stroke-linejoin:round;stroke-miterlimit:10;" x1="65.753" y1="444.961" x2="684.247" y2="444.961"/>
		
			<line style="fill:none;stroke:#000000;stroke-linecap:round;stroke-linejoin:round;stroke-miterlimit:10;" x1="498.621" y1="453.5" x2="105.014" y2="453.5"/>
		
			<line style="fill:none;stroke:#000000;stroke-linecap:round;stroke-linejoin:round;stroke-miterlimit:10;" x1="555.644" y1="453.5" x2="513.465" y2="453.5"/>
		
			<line style="fill:none;stroke:#000000;stroke-linecap:round;stroke-linejoin:round;stroke-miterlimit:10;" x1="671.843" y1="453.5" x2="562.627" y2="453.5"/>
	</g>
</g>
<g id="TEXTS">
	<g>
		
			<text transform="matrix(0.9737 -0.2276 0.2276 0.9737 206.4288 377.9378)" style="fill:#FFFFFF; font-family:'Montserrat-ExtraBold'; font-size:28.4501px;">Rented</text>
		<g>
			
				<linearGradient id="SVGID_00000031174962790766481320000018083589741677642165_" gradientUnits="userSpaceOnUse" x1="202.8501" y1="355.3823" x2="309.0861" y2="355.3823" gradientTransform="matrix(0.9738 -0.2276 0.2276 0.9738 -72.4214 67.446)">
				<stop  offset="0" style="stop-color:#E4816F"/>
				<stop  offset="1" style="stop-color:#E25E52"/>
			</linearGradient>
			<path style="fill:url(#SVGID_00000031174962790766481320000018083589741677642165_);" d="M215.643,370.349l-2.993,0.699
				l1.205,5.154l-5.486,1.282l-4.534-19.397l8.867-2.072c5.292-1.238,9.259,0.729,10.296,5.162c0.667,2.854-0.227,5.284-2.365,7.012
				l5.609,5.118l-5.875,1.373L215.643,370.349z M213.379,360.415l-3.048,0.712l1.328,5.682l3.048-0.713
				c2.272-0.531,3.162-1.85,2.747-3.623C217.034,360.671,215.652,359.884,213.379,360.415z"/>
			
				<linearGradient id="SVGID_00000168098302926307595970000009262817097985080464_" gradientUnits="userSpaceOnUse" x1="202.8501" y1="355.3823" x2="309.0861" y2="355.3823" gradientTransform="matrix(0.9738 -0.2276 0.2276 0.9738 -72.4214 67.446)">
				<stop  offset="0" style="stop-color:#E4816F"/>
				<stop  offset="1" style="stop-color:#E25E52"/>
			</linearGradient>
			<path style="fill:url(#SVGID_00000168098302926307595970000009262817097985080464_);" d="M242.443,363.002l-10.918,2.552
				c0.8,1.421,2.31,2.004,4.25,1.55c1.469-0.343,2.341-0.985,3.159-2.112l3.444,2.234c-1.065,1.943-2.978,3.268-5.831,3.936
				c-5.349,1.25-9.583-1.238-10.632-5.729c-1.056-4.516,1.711-8.553,6.45-9.66c4.434-1.037,8.696,0.947,9.856,5.908
				C242.313,362.068,242.373,362.58,242.443,363.002z M230.794,362.803l6.151-1.438c-0.646-1.515-2.043-2.24-3.678-1.857
				C231.632,359.889,230.73,361.151,230.794,362.803z"/>
			
				<linearGradient id="SVGID_00000044152754983348924080000007318295509488528292_" gradientUnits="userSpaceOnUse" x1="202.8501" y1="355.3823" x2="309.0861" y2="355.3823" gradientTransform="matrix(0.9738 -0.2276 0.2276 0.9738 -72.4214 67.446)">
				<stop  offset="0" style="stop-color:#E4816F"/>
				<stop  offset="1" style="stop-color:#E25E52"/>
			</linearGradient>
			<path style="fill:url(#SVGID_00000044152754983348924080000007318295509488528292_);" d="M260.385,356.266l2.009,8.59
				l-5.265,1.231l-1.808-7.731c-0.505-2.161-1.661-2.856-3.186-2.5c-1.69,0.396-2.746,1.753-2.163,4.247l1.697,7.26l-5.266,1.23
				l-3.511-15.019l5.016-1.172l0.382,1.635c0.9-1.526,2.441-2.558,4.326-2.999C256.136,350.215,259.297,351.61,260.385,356.266z"/>
			
				<linearGradient id="SVGID_00000033366029810298044770000013712338616518899076_" gradientUnits="userSpaceOnUse" x1="202.8501" y1="355.3823" x2="309.0861" y2="355.3823" gradientTransform="matrix(0.9738 -0.2276 0.2276 0.9738 -72.4214 67.446)">
				<stop  offset="0" style="stop-color:#E4816F"/>
				<stop  offset="1" style="stop-color:#E25E52"/>
			</linearGradient>
			<path style="fill:url(#SVGID_00000033366029810298044770000013712338616518899076_);" d="M275.907,361.054
				c-0.778,0.797-2.071,1.391-3.457,1.715c-3.852,0.9-6.537-0.46-7.438-4.312l-1.179-5.044l-2.189,0.512l-0.919-3.935l2.188-0.512
				L262,345.571l5.266-1.23l0.913,3.907l3.437-0.803l0.919,3.935l-3.436,0.803l1.166,4.988c0.259,1.108,1.039,1.568,1.981,1.349
				c0.581-0.136,1.124-0.438,1.497-0.847L275.907,361.054z"/>
			
				<linearGradient id="SVGID_00000112624231983564520630000002686781336413695151_" gradientUnits="userSpaceOnUse" x1="202.8501" y1="355.3823" x2="309.0861" y2="355.3823" gradientTransform="matrix(0.9738 -0.2276 0.2276 0.9738 -72.4214 67.446)">
				<stop  offset="0" style="stop-color:#E4816F"/>
				<stop  offset="1" style="stop-color:#E25E52"/>
			</linearGradient>
			<path style="fill:url(#SVGID_00000112624231983564520630000002686781336413695151_);" d="M291.893,351.442l-10.918,2.552
				c0.8,1.42,2.31,2.003,4.249,1.549c1.469-0.343,2.342-0.985,3.159-2.111l3.445,2.234c-1.065,1.943-2.978,3.268-5.831,3.935
				c-5.349,1.25-9.583-1.238-10.633-5.728c-1.056-4.516,1.712-8.554,6.451-9.661c4.434-1.037,8.696,0.948,9.856,5.908
				C291.763,350.509,291.824,351.02,291.893,351.442z M280.245,351.243l6.151-1.438c-0.646-1.515-2.043-2.24-3.678-1.858
				C281.082,348.329,280.18,349.592,280.245,351.243z"/>
			
				<linearGradient id="SVGID_00000133496755596471151090000007605949703612833687_" gradientUnits="userSpaceOnUse" x1="202.8501" y1="355.3823" x2="309.0861" y2="355.3823" gradientTransform="matrix(0.9738 -0.2276 0.2276 0.9738 -72.4214 67.446)">
				<stop  offset="0" style="stop-color:#E4816F"/>
				<stop  offset="1" style="stop-color:#E25E52"/>
			</linearGradient>
			<path style="fill:url(#SVGID_00000133496755596471151090000007605949703612833687_);" d="M307.009,332.741l4.807,20.562
				l-5.016,1.173l-0.35-1.496c-0.72,1.424-2.059,2.322-3.998,2.775c-4.102,0.959-8.099-1.263-9.22-6.058
				c-1.114-4.766,1.491-8.502,5.592-9.46c1.746-0.408,3.276-0.24,4.52,0.58l-1.6-6.845L307.009,332.741z M304.871,346.976
				c-0.53-2.272-2.187-3.229-3.96-2.815c-1.801,0.421-2.861,2.013-2.33,4.286c0.538,2.3,2.2,3.285,4.001,2.864
				C304.356,350.896,305.41,349.277,304.871,346.976z"/>
		</g>
	</g>
</g>
</svg>
