<?xml version="1.0" encoding="utf-8"?>
<!-- Generator: Adobe Illustrator 27.5.0, SVG Export Plug-In . SVG Version: 6.00 Build 0)  -->
<svg version="1.1" xmlns="http://www.w3.org/2000/svg" xmlns:xlink="http://www.w3.org/1999/xlink" x="0px" y="0px"
	 viewBox="0 0 750 500" style="enable-background:new 0 0 750 500;" xml:space="preserve">
<g id="BACKGROUND">
	<rect x="-0.002" style="fill:#B9ECF4;" width="750" height="500"/>
</g>
<g id="OBJECTS">
	<path style="fill:#FFFFFF;" d="M749.998,136.026c-10.903,4.449-16.083,15.909-16.083,15.909s-29.245-9.849-45.533,15.505
		c-32.948-13.697-84.815,13.697-84.815,13.697h146.431V136.026z"/>
	<path style="fill:#FFFFFF;" d="M408.605,100.718H194.701c0,0,51.867-27.395,84.815-13.698
		c16.288-25.354,45.533-15.505,45.533-15.505s10.862-24.054,34.258-15.998c16.599,5.716,18.946,24.595,18.946,24.595
		S409.441,73.76,408.605,100.718z"/>
	<path style="fill:#FFFFFF;" d="M141.849,140.619H44.424c0,0,19.567-18.66,32.729-13.258c8.174-34.503,47.168-25.287,45.628-2.46
		C138.201,108.821,149.487,131.515,141.849,140.619z"/>
	<g>
		<polyline style="fill:#AFC8DD;" points="159.318,259.348 214.572,192.36 250.37,192.36 229.358,268.687 		"/>
		<path style="fill:#FFFFFF;" d="M273.543,265.954c0,18.581,0,39.863,0,39.863s-33.446,12.173-75.199,12.173
			c-41.744,0-198.346,0-198.346,0V219.77C-0.002,219.77,158.817,232.508,273.543,265.954z"/>
		<path style="fill:#AFC8DD;" d="M273.543,305.817c0,0-33.446,12.173-75.199,12.173c-41.744,0-198.346,0-198.346,0v-20.872
			c45.982,1.881,123.944,5.458,148.765,6.585c5.449-2.328,43.235-24.896,43.235-24.896h18.134l-18.134,24.896L273.543,305.817z"/>
		<path style="fill:#AFC8DD;" d="M127.378,278.871H50.317c-2.812,0-5.092-2.28-5.092-5.092l0,0c0-2.812,2.28-5.092,5.092-5.092
			h77.062c2.813,0,5.092,2.28,5.092,5.092l0,0C132.471,276.592,130.191,278.871,127.378,278.871z"/>
	</g>
	<g>
		<g>
			<linearGradient id="SVGID_1_" gradientUnits="userSpaceOnUse" x1="116.3353" y1="327.2958" x2="166.2166" y2="1.073">
				<stop  offset="0" style="stop-color:#FFFFFF;stop-opacity:0"/>
				<stop  offset="1" style="stop-color:#FFFFFF"/>
			</linearGradient>
			<polygon style="fill:url(#SVGID_1_);" points="0,255.471 181.111,0 293.698,0 0,425.067 			"/>
			
				<linearGradient id="SVGID_00000151529756956363791020000013385184105589932934_" gradientUnits="userSpaceOnUse" x1="187.4676" y1="340.1251" x2="237.3488" y2="13.9024">
				<stop  offset="0" style="stop-color:#FFFFFF;stop-opacity:0"/>
				<stop  offset="1" style="stop-color:#FFFFFF"/>
			</linearGradient>
			<polygon style="fill:url(#SVGID_00000151529756956363791020000013385184105589932934_);" points="63.391,393.143 327.96,0 
				355.444,0 61.746,425.067 			"/>
			
				<linearGradient id="SVGID_00000171716416850663322820000010733423459425204098_" gradientUnits="userSpaceOnUse" x1="54.7509" y1="153.1121" x2="77.2494" y2="5.9716">
				<stop  offset="0" style="stop-color:#FFFFFF;stop-opacity:0"/>
				<stop  offset="1" style="stop-color:#FFFFFF"/>
			</linearGradient>
			<polygon style="fill:url(#SVGID_00000171716416850663322820000010733423459425204098_);" points="0,156.008 104.987,0 132.471,0 
				0,191.724 			"/>
			
				<linearGradient id="SVGID_00000103228937738211509780000009078346766935018159_" gradientUnits="userSpaceOnUse" x1="352.0543" y1="363.3384" x2="401.9355" y2="37.1156">
				<stop  offset="0" style="stop-color:#FFFFFF;stop-opacity:0"/>
				<stop  offset="1" style="stop-color:#FFFFFF"/>
			</linearGradient>
			<polygon style="fill:url(#SVGID_00000103228937738211509780000009078346766935018159_);" points="233.508,392.146 504.095,0 
				521.962,0 228.264,425.067 			"/>
			
				<linearGradient id="SVGID_00000009590797387612994060000002725980710190027451_" gradientUnits="userSpaceOnUse" x1="458.0619" y1="379.5478" x2="507.9431" y2="53.325">
				<stop  offset="0" style="stop-color:#FFFFFF;stop-opacity:0"/>
				<stop  offset="1" style="stop-color:#FFFFFF"/>
			</linearGradient>
			<polygon style="fill:url(#SVGID_00000009590797387612994060000002725980710190027451_);" points="325.368,392.146 595.955,0 
				646.864,0 353.166,425.067 			"/>
			
				<linearGradient id="SVGID_00000072264358346022469470000016313381139686257054_" gradientUnits="userSpaceOnUse" x1="611.2096" y1="402.9644" x2="661.0908" y2="76.7415">
				<stop  offset="0" style="stop-color:#FFFFFF;stop-opacity:0"/>
				<stop  offset="1" style="stop-color:#FFFFFF"/>
			</linearGradient>
			<polygon style="fill:url(#SVGID_00000072264358346022469470000016313381139686257054_);" points="514.308,419.162 750,47.966 
				750,112.811 542.106,452.083 			"/>
		</g>
		<rect x="-0.002" y="359.207" style="fill:#60C2D7;" width="750" height="140.793"/>
		<rect x="219.939" style="fill:#60C2D7;" width="15.344" height="366.208"/>
		<rect x="452.343" style="fill:#60C2D7;" width="15.344" height="366.208"/>
		<rect x="684.747" style="fill:#60C2D7;" width="15.344" height="366.208"/>
		<rect x="-0.002" y="350.246" style="fill:#3FA3CB;" width="750" height="9.962"/>
	</g>
	<g>
		<g>
			<path style="fill:#2C1F49;" d="M684.569,218.559H434.08c-4.367,0-7.907-3.54-7.907-7.907V61.399c0-4.367,3.54-7.907,7.907-7.907
				h250.489c4.367,0,7.907,3.54,7.907,7.907v149.253C692.476,215.019,688.936,218.559,684.569,218.559z"/>
			<g>
				<g>
					<rect x="480.218" y="47.515" style="fill:#2C1F49;" width="19.426" height="10.856"/>
					<rect x="487.36" style="fill:#2C1F49;" width="5.142" height="52.943"/>
				</g>
				<g>
					<rect x="619.005" y="47.515" style="fill:#2C1F49;" width="19.426" height="10.856"/>
					<rect x="626.147" style="fill:#2C1F49;" width="5.142" height="52.943"/>
				</g>
			</g>
			<rect x="436.241" y="66.013" style="fill:#392D54;" width="245.344" height="22.56"/>
			<rect x="436.652" y="95.215" style="fill:#392D54;" width="245.344" height="22.56"/>
			<rect x="436.652" y="124.417" style="fill:#392D54;" width="245.344" height="22.56"/>
			<rect x="436.652" y="153.619" style="fill:#392D54;" width="245.344" height="22.56"/>
			<rect x="436.652" y="182.821" style="fill:#392D54;" width="245.344" height="22.56"/>
		</g>
		<g>
			<text transform="matrix(1 0 0 1 588.4014 82.4936)" style="fill:#FF4D61; font-family:'Montserrat-Bold'; font-size:13.5074px;">cancelled</text>
			
				<text transform="matrix(1 0 0 1 487.3604 82.4936)" style="fill:#FFFFFF; font-family:'Montserrat-Regular'; font-size:13.5074px;">london</text>
			
				<text transform="matrix(1 0 0 1 442.2229 82.4936)" style="fill:#FFFFFF; font-family:'Montserrat-Regular'; font-size:13.5074px;">07.10</text>
		</g>
		<g>
			
				<text transform="matrix(1 0 0 1 588.4014 111.0565)" style="fill:#FF4D61; font-family:'Montserrat-Bold'; font-size:13.5074px;">cancelled</text>
			
				<text transform="matrix(1 0 0 1 487.3604 111.0565)" style="fill:#FFFFFF; font-family:'Montserrat-Regular'; font-size:13.5074px;">paris</text>
			
				<text transform="matrix(1 0 0 1 442.2229 111.0565)" style="fill:#FFFFFF; font-family:'Montserrat-Regular'; font-size:13.5074px;">09.10</text>
		</g>
		<g>
			
				<text transform="matrix(1 0 0 1 588.4014 140.6194)" style="fill:#FF4D61; font-family:'Montserrat-Bold'; font-size:13.5074px;">cancelled</text>
			
				<text transform="matrix(1 0 0 1 487.3604 140.6194)" style="fill:#FFFFFF; font-family:'Montserrat-Regular'; font-size:13.5074px;">lisbon</text>
			
				<text transform="matrix(1 0 0 1 442.2229 140.6194)" style="fill:#FFFFFF; font-family:'Montserrat-Regular'; font-size:13.5074px;">10.40</text>
		</g>
		<g>
			
				<text transform="matrix(1 0 0 1 588.4014 169.1822)" style="fill:#FF4D61; font-family:'Montserrat-Bold'; font-size:13.5074px;">cancelled</text>
			
				<text transform="matrix(1 0 0 1 487.3604 169.1822)" style="fill:#FFFFFF; font-family:'Montserrat-Regular'; font-size:13.5074px;">milan</text>
			
				<text transform="matrix(1 0 0 1 442.2229 169.1822)" style="fill:#FFFFFF; font-family:'Montserrat-Regular'; font-size:13.5074px;">12.20</text>
		</g>
		<g>
			<text transform="matrix(1 0 0 1 588.4014 197.745)" style="fill:#FF4D61; font-family:'Montserrat-Bold'; font-size:13.5074px;">cancelled</text>
			
				<text transform="matrix(1 0 0 1 487.3604 197.745)" style="fill:#FFFFFF; font-family:'Montserrat-Regular'; font-size:13.5074px;">new york</text>
			
				<text transform="matrix(1 0 0 1 442.2229 197.745)" style="fill:#FFFFFF; font-family:'Montserrat-Regular'; font-size:13.5074px;">13.30</text>
		</g>
	</g>
	<ellipse style="opacity:0.2;fill:#5E2655;" cx="294.782" cy="453.835" rx="72.459" ry="10.203"/>
	<ellipse style="opacity:0.2;fill:#5E2655;" cx="139.17" cy="453.835" rx="55.957" ry="10.203"/>
	<ellipse style="opacity:0.2;fill:#5E2655;" cx="455.958" cy="453.835" rx="69.624" ry="10.203"/>
	<g>
		<path style="fill:#FF9B47;" d="M242.332,124.095c0,0,65.532-0.754,105.393-41.171c-41.55-1.143-61.449,6.661-61.449,6.661
			S250.56,105.084,242.332,124.095z"/>
		<path style="fill:#413B6F;" d="M314.834,432.964h-16.426l10.23-132.567h-5.158l-9.85,132.567h-17.282
			c0,0-5.977-37.676-9.203-83.499c-2.417-34.346-2.417-56.082-2.198-66.026c0.095-4.264,0.228-6.367,0.228-6.367l77.161,0.933
			c0.476,2.275,0.828,4.749,1.056,7.404C347.372,331.906,314.834,432.964,314.834,432.964z"/>
		<path style="opacity:0.2;fill:#5E2655;" d="M343.393,285.408c-29.226,11.106-78.446-1.97-78.446-1.97
			c0.095-4.264,0.228-6.367,0.228-6.367l77.161,0.933C342.813,280.279,343.165,282.753,343.393,285.408z"/>
		<g>
			<path style="fill:#413B6F;" d="M307.118,84.859c0,0-20.973-8.329-34.585,4.063s-14.221,30.676-9.142,47.945
				s-20.112,26.027-11.58,49.581c8.533,23.555,65.914,26.805,76.127,5.474c10.214-21.331-2.465-41.444-0.392-50.383
				c2.073-8.939,6.414-32.183,2.351-44.778C325.835,84.166,315.699,76.936,307.118,84.859z"/>
			<path style="fill:#FF3B6F;" d="M354.696,242.624c-2.1,8.76-17.338,8.421-17.338,8.421l1.836,9.941l3.146,17.022
				c-31.802,12.748-77.165-0.933-77.165-0.933l1.972-11.672l2.702-16.021c0,0-10.468,1.001-14.298-3.672
				c-5.998-7.307-1.385-51.721,1.159-59.397c2.551-7.668,28.333-27.392,28.333-27.392l26.406,0.737c0,0,24.578,16.443,29.326,24.202
				C347.592,194.988,356.502,235.106,354.696,242.624z"/>
			<path style="fill:#FFAC83;" d="M311.448,159.657c0,0-0.542,12.743-11.386,12.323c-10.851-0.42-15.02-13.06-15.02-13.06
				l1.234-8.936l0.549-5.393l21.876,2.806l1.836,10.13L311.448,159.657z"/>
			<path style="fill:#FF906E;" d="M310.538,157.527c-14.742-0.701-21.357-4.185-24.262-7.543l0.549-5.393l21.876,2.806
				L310.538,157.527z"/>
			<path style="fill:#FFAC83;" d="M278.028,116.423v8.07c0,0-7.117,5.003-11.345,0.77c-2.242-2.242-2.156-5.999-1.179-9.182
				c0.855-2.822,2.419-5.193,3.678-5.669c2.694-1.02,7.252,4.032,7.252,4.032L278.028,116.423z"/>
			<path style="fill:#FF906E;" d="M278.028,120.424v4.069c0,0-7.117,5.003-11.345,0.77c-2.242-2.242-2.156-5.999-1.179-9.182
				C270.294,113.942,275.285,117.736,278.028,120.424z"/>
			<path style="fill:#FFAC83;" d="M321.568,114.59v8.07c0,0,7.117,5.003,11.345,0.77c2.242-2.242,2.156-5.999,1.179-9.182
				c-0.855-2.823-2.419-5.193-3.678-5.669c-2.694-1.02-7.252,4.032-7.252,4.032L321.568,114.59z"/>
			<path style="fill:#FF906E;" d="M321.568,118.591v4.069c0,0,7.117,5.003,11.345,0.77c2.242-2.242,2.156-5.999,1.179-9.182
				C329.302,112.11,324.311,115.903,321.568,118.591z"/>
			<path style="fill:#FFAC83;" d="M276.433,114.446c0,0-1.128,22.452,5.011,29.23c10.203,11.267,35.765,8.993,42.208-3.736
				s1.03-35.364,1.03-35.364l-14.631-8.147C310.051,96.429,300.801,106.692,276.433,114.446z"/>
			<path style="fill:#FF906E;" d="M303.363,110.511c0,0,6.544,15.453,7.82,18.355c1.276,2.902-8.017,2.152-8.017,2.152
				S302.526,117.26,303.363,110.511z"/>
			<path style="fill:#3F2C4E;" d="M292.417,113.62c-0.335,0.403-0.17,4.081,0.085,4.612c0.255,0.531,1.697,0.741,2.206,0.339
				c0.509-0.402,0.339-4.242,0-4.952C294.368,112.91,293.095,112.803,292.417,113.62z"/>
			<path style="fill:#3F2C4E;" d="M313.624,113.62c-0.335,0.403-0.17,4.081,0.085,4.612c0.255,0.531,1.697,0.741,2.206,0.339
				c0.509-0.402,0.339-4.242,0-4.952C315.576,112.91,314.303,112.803,313.624,113.62z"/>
			<path style="fill:#FFFFFF;" d="M305.99,119.375c2.731-0.194,12.555,3.969,16.033,8.72c3.069,4.192-0.46,13.064-6.296,16.796
				c-5.835,3.732-22.632,4.92-29.418-1.357c-6.786-6.277-0.162-13.139,3.563-16.203C295.029,123.09,301.302,119.709,305.99,119.375z
				"/>
			<path style="fill:#FFFFFF;" d="M293.629,127.464c0,0-16.053-15.555-16.415-14.417c-0.362,1.137,13.393,16.588,13.393,16.588
				s-14.153,0.362-14.256,1.206c-0.103,0.844,14.256,1.688,14.256,1.688L293.629,127.464z"/>
			<path style="fill:#382D5A;" d="M289.497,106.634c-0.49,0.624,6.911,5.347,7.958,4.253
				C299.471,108.782,291.623,103.926,289.497,106.634z"/>
			<path style="fill:#382D5A;" d="M319.784,107.965c0.273,0.744-8.226,2.948-8.883,1.585
				C309.634,106.924,318.599,104.733,319.784,107.965z"/>
			<polygon style="opacity:0.2;fill:#5E2655;" points="337.362,227.356 331.2,190.987 329.246,221.179 306.701,228.182 
				282.203,217.575 275.613,197.599 275.613,223.686 309.385,230.504 316.603,231.26 			"/>
			<path style="fill:#FFAC83;" d="M312.077,230.786l3.877,11.835l21.407-15.265c0,0-4.033-8.361-10.763-7.856
				C319.868,220.004,312.077,230.786,312.077,230.786z"/>
			<path style="fill:#FFAC83;" d="M280.109,225.369c0,0,8.089-4.862,14.094-4.357c6.006,0.505,6.88,7.816,6.88,7.816
				L280.109,225.369z"/>
			<path style="opacity:0.2;fill:#5E2655;" d="M339.194,260.985c-21.312,6.893-56.191,5.516-72.047,4.417l2.702-16.021l43.707-2.009
				l23.802,3.672L339.194,260.985z"/>
			<path style="fill:#FFFFFF;" d="M316.236,125.923c0,0,7.921-18.388,9.765-17.701s-7.863,20.042-7.863,20.042
				s10.203,1.249,10.018,2.185c-0.185,0.936-7.209,0-7.209,0"/>
		</g>
		<path style="opacity:0.2;fill:#5E2655;" d="M276.352,290.584l-5.873,16.431C270.479,307.015,281.435,302.502,276.352,290.584z"/>
		<path style="fill:#FFBE62;" d="M276.349,432.964l1.349,6.955l-17.184,7.231c-2.681,1.128-4.403,3.778-4.344,6.686l0,0h36.059
			l1.402-20.871"/>
		<path style="fill:#FFBE62;" d="M314.834,432.964l-1.236,6.955l14.329,7.231c2.681,1.128,4.403,3.778,4.344,6.686l0,0h-36.059
			l2.197-20.871"/>
		<path style="fill:#FFFFFF;" d="M269.137,442.434c-1.35,1.34,5.151,3.445,5.762,2.584
			C275.511,444.156,271.036,440.548,269.137,442.434z"/>
		<path style="fill:#FFFFFF;" d="M274.305,439.111c-1.35,1.34,5.151,3.445,5.762,2.584
			C280.679,440.833,276.204,437.225,274.305,439.111z"/>
		<path style="fill:#FFFFFF;" d="M320.77,442.434c1.35,1.34-5.151,3.445-5.762,2.584
			C314.396,444.156,318.871,440.548,320.77,442.434z"/>
		<path style="fill:#FFFFFF;" d="M315.602,439.111c1.35,1.34-5.151,3.445-5.762,2.584
			C309.227,440.833,313.703,437.225,315.602,439.111z"/>
		<path style="fill:#FFBE62;" d="M319.794,82.895l-58.195,19.354c0,0-1.005-5.61,0.39-12.349c1.313-6.441,4.81-13.918,13.446-18.523
			c12.533-6.687,27.59-5.231,36.708,1.251C315.886,75.275,318.624,78.772,319.794,82.895z"/>
		<path style="fill:#FF3B6F;" d="M319.794,82.895l-58.195,19.354c0,0-1.005-5.61,0.39-12.349
			c8.257-6.523,25.836-17.538,50.154-17.272C315.886,75.275,318.624,78.772,319.794,82.895z"/>
		<path style="fill:#FFBE62;" d="M242.332,124.095c0,0,25.794-36.743,105.393-41.171C325.343,76.889,262.506,78.555,242.332,124.095
			z"/>
	</g>
	<g>
		<path style="fill:none;stroke:#413B6F;stroke-width:4;stroke-miterlimit:10;" d="M151.715,365.27h-23.807
			c-7.119,0-12.89-5.771-12.89-12.889v-36.589c0-7.119,5.771-12.889,12.89-12.889h23.807c7.119,0,12.889,5.771,12.889,12.889v36.589
			C164.604,359.5,158.834,365.27,151.715,365.27z"/>
		<path style="fill:#413B6F;" d="M119.365,456.767h-0.543c-5.846,0-10.585-4.739-10.585-10.585v-0.543
			c0-5.846,4.739-10.585,10.585-10.585h0.543c5.846,0,10.585,4.739,10.585,10.585v0.543
			C129.95,452.028,125.211,456.767,119.365,456.767z"/>
		<path style="fill:#413B6F;" d="M162.652,456.767h-0.543c-5.846,0-10.585-4.739-10.585-10.585v-0.543
			c0-5.846,4.739-10.585,10.585-10.585h0.543c5.846,0,10.585,4.739,10.585,10.585v0.543
			C173.237,452.028,168.498,456.767,162.652,456.767z"/>
		<path style="fill:#FFD1A0;" d="M190.009,338.957v97.323c0,6.851-5.559,12.421-12.41,12.421h-73.251
			c-6.851,0-12.41-5.569-12.41-12.421v-97.323c0-6.862,5.559-12.421,12.41-12.421h73.251
			C184.45,326.537,190.009,332.096,190.009,338.957z"/>
		<path style="opacity:0.2;fill:#B62655;" d="M114.389,326.537v122.164h-10.041c-6.851,0-12.41-5.569-12.41-12.421v-97.323
			c0-6.862,5.559-12.421,12.41-12.421H114.389z"/>
		<path style="fill:#FFFFFF;" d="M169.502,362.205h-35.818c-2.063,0-3.735-1.672-3.735-3.735v-0.191
			c0-2.063,1.672-3.735,3.735-3.735h35.818c2.063,0,3.735,1.672,3.735,3.735v0.191C173.237,360.533,171.565,362.205,169.502,362.205
			z"/>
		<path style="fill:#FFFFFF;" d="M169.502,384.27h-35.818c-2.063,0-3.735-1.672-3.735-3.735v-0.192c0-2.063,1.672-3.735,3.735-3.735
			h35.818c2.063,0,3.735,1.672,3.735,3.735v0.192C173.237,382.598,171.565,384.27,169.502,384.27z"/>
		<path style="fill:#FFFFFF;" d="M169.502,407.36h-35.818c-2.063,0-3.735-1.672-3.735-3.735v-0.191c0-2.063,1.672-3.735,3.735-3.735
			h35.818c2.063,0,3.735,1.672,3.735,3.735v0.191C173.237,405.688,171.565,407.36,169.502,407.36z"/>
	</g>
	<g>
		<path style="fill:#413B6F;" d="M520.596,451.07c-1.354,1.139-6.513,2.144-14.051,2.964c-0.195,0.02-0.379,0.041-0.574,0.062
			c-1.457,0.154-2.995,0.297-4.605,0.441c-0.492,0.041-0.984,0.082-1.497,0.133c-14.389,1.179-34.123,1.867-52.595,1.887
			c-1.59,0-3.169,0-4.728-0.01c-0.605,0-1.21-0.01-1.815-0.01c-1.528-0.01-3.046-0.031-4.544-0.061
			c-6.349-0.092-12.369-0.277-17.733-0.554c-13.149-0.687-22.431-1.949-23.364-3.908c-3.415-7.159,2.39-55.651,5.118-59.036
			c0.697-0.872,8.195-1.877,19.138-2.79c5.056-0.421,10.851-0.708,17.057-0.882c0.646-0.021,1.292-0.031,1.938-0.051
			c2.072-0.051,4.174-0.082,6.328-0.103c0.164-0.01,0.328-0.01,0.492-0.01c17.415-0.174,36.657,0.472,51.333,1.764
			c2.01,0.174,3.939,0.369,5.754,0.564c0.831,0.082,1.641,0.174,2.421,0.287c0.072,0,0.133,0.01,0.195,0.021
			c7.303,0.892,12.626,1.99,14.708,3.262C523.734,397.572,527.755,445.019,520.596,451.07z"/>
		<path style="opacity:0.2;fill:#5E2655;" d="M395.085,452.013c0.933,1.959,10.215,3.221,23.364,3.908
			c3.036-4.123,6.082-8.4,7.385-13.344c3.251-12.287-4.964-25.241-2.523-37.723c0.605-3.087,1.846-6.267,0.933-9.282
			c-0.728-2.421-2.646-4.103-4.903-5.385c-10.944,0.913-18.441,1.918-19.138,2.79C397.475,396.362,391.67,444.854,395.085,452.013z"
			/>
		<path style="fill:#413B6F;" d="M454.768,392.056c0,0,0.988-8.387,2.174-10.561c1.186-2.174,19.767-1.553,21.348,0.311
			c1.581,1.864,2.57,11.493,2.57,11.493h-3.558c0,0-0.751-6.212-1.463-7.765c-0.712-1.553-13.711-2.174-15.118-1.242
			c-1.407,0.932-2.611,10.872-2.611,10.872"/>
		<path style="fill:#656AA3;" d="M447.273,456.557c-1.59,0-3.169,0-4.728-0.01c-0.605,0-1.21-0.01-1.815-0.01
			c0.318-2.092,0.574-4.195,0.749-6.308c0.431-5.015,0.451-10.062-0.082-15.056c-0.462-4.359-1.343-8.646-1.795-13.005
			c-0.677-6.533-0.379-13.138-0.81-19.692c-0.287-4.462-0.934-8.964-2.39-13.169c0.646-0.021,1.292-0.031,1.938-0.051
			c2.072-0.051,4.174-0.082,6.328-0.103c0.307,1.077,0.554,2.185,0.728,3.282c0.923,5.662,0.41,11.457,0.359,17.2
			c-0.041,4.821,0.246,9.641,0.862,14.421c0.523,4.144,1.303,8.256,1.703,12.41C448.965,443.162,448.596,449.962,447.273,456.557z"
			/>
		<path style="fill:#656AA3;" d="M506.544,454.034c-0.195,0.02-0.379,0.041-0.574,0.062c-1.457,0.154-2.995,0.297-4.605,0.441
			c-0.492,0.041-0.984,0.082-1.497,0.133c0.308-2.041,0.554-4.103,0.728-6.174c0.431-5.005,0.451-10.051-0.082-15.057
			c-0.462-4.349-1.344-8.646-1.795-12.995c-0.677-6.533-0.38-13.139-0.8-19.692c-0.215-3.303-0.626-6.636-1.426-9.846
			c2.01,0.174,3.939,0.369,5.754,0.564c0.831,0.082,1.641,0.174,2.421,0.287c0.708,5.333,0.256,10.769,0.205,16.154
			c-0.041,4.821,0.246,9.641,0.862,14.421c0.533,4.144,1.302,8.256,1.702,12.41C508.052,441.172,507.745,447.685,506.544,454.034z"
			/>
		<path style="opacity:0.2;fill:#5E2655;" d="M402.753,445.449c0.262,0.538,0.558,1.089,1.047,1.435
			c0.491,0.348,1.115,0.443,1.716,0.482c2.078,0.132,4.235-0.341,5.918-1.567c1.639-1.194,2.719-2.996,3.637-4.804
			c1.03-2.032,1.913-4.139,2.638-6.299c0.892-2.655,1.388-5.99-0.655-7.905c-1.295-1.213-3.21-1.428-4.982-1.525
			c-3.831-0.21-9.985-1.306-11.62,3.249C398.627,433.596,400.499,440.812,402.753,445.449z"/>
	</g>
	<path style="opacity:0.2;fill:#5E2655;" d="M749.998,368.363c-37.866-1.679-98.086-2.765-165.912-2.765
		c-114.607,0-207.514,3.1-207.514,6.923c0,3.824,92.907,6.923,207.514,6.923c67.826,0,128.046-1.086,165.912-2.765V368.363z"/>
	<g>
		<path style="fill:#FFBE62;" d="M389.509,317.99H750V250H406.868c-9.587,0-17.359,7.772-17.359,17.359V317.99z"/>
		<rect x="389.509" y="317.99" style="fill:#FF9B47;" width="360.49" height="13.909"/>
		<rect x="409.192" y="331.899" style="fill:#2C1F49;" width="9.191" height="41.778"/>
		<rect x="517.367" y="331.899" style="fill:#2C1F49;" width="9.191" height="41.778"/>
		<rect x="625.541" y="331.899" style="fill:#2C1F49;" width="9.191" height="41.778"/>
		<rect x="733.716" y="331.899" style="fill:#2C1F49;" width="9.191" height="41.778"/>
	</g>
</g>
</svg>
