<svg xmlns="http://www.w3.org/2000/svg" version="1.1" viewBox="0 0 204.363 315">
  <style>
    .st0 { fill: #3D5BEA; }
    .st1 { opacity: 0.3; }
  </style>
  
  <g id="color_index_0" class="st0">
    <path d="M178.563,46.583h-24.409V23.148C154.153,10.391,143.776,0,131.02,0H73.859C61.088,0,50.711,10.391,50.711,23.148v23.435H25.8c-14.249,0-25.8,11.551-25.8,25.8v65.66c0,23.263,19.063,42.412,42.297,41.624c4.773-0.158,9.747-0.932,14.864-2.408c14.992-4.343,35.159-17.472,35.159-17.472l-3.268-4.687l-53.706-49.163l7.568-2.25l38.556,18.561l9.044-4.945c1.505-0.817,3.426-0.229,4.185,1.39c0.588,1.233,0.172,2.723-0.86,3.641l-4.329,3.798l11.166,5.375l9.015-4.916c1.792-0.975,3.942,0.358,3.87,2.394l-0.086,1.792c0,0.244-0.158,0.573-0.344,0.731l-4.415,3.87l10.936,5.275l22.259-15.566c7.195-5.045,16.039-7.152,24.725-5.905c-1.806,8.6-6.808,16.182-14.003,21.227l-22.245,15.566l1.204,12.083l5.16-2.824c1.505-0.817,3.426-0.229,4.185,1.39c0.588,1.233,0.158,2.723-0.874,3.641l-7.582,6.665l1.233,12.341l5.189-2.838c1.505-0.817,3.426-0.229,4.185,1.39c0.588,1.233,0.158,2.723-0.86,3.641l-7.64,6.694l4.257,42.584l-4.701,6.335l-27.821-67.28l-3.268-4.687c0,0-36.249,20.869-65.875,47.17c-9.544,8.471-23.395,23.216-31.784,34.003C1.88,260.802,0,266.375,0,272.101c0,14.249,11.551,25.8,25.8,25.8h6.93c0,0.002,0,0.004,0,0.006c0,9.44,7.653,17.093,17.093,17.093s17.093-7.653,17.093-17.093c0-0.002,0-0.004,0-0.006h70.531c0,0.002,0,0.004,0,0.006c0,9.44,7.653,17.093,17.093,17.093s17.093-7.653,17.093-17.093c0-0.002,0-0.004,0-0.006h6.93c14.249,0,25.8-11.551,25.8-25.8V72.383C204.363,58.134,192.812,46.583,178.563,46.583z M63.611,46.583V23.148c0-5.647,4.587-10.248,10.248-10.248h57.161c5.647,0,10.234,4.601,10.234,10.248v23.435H63.611z"/>
  </g>
  
  <g class="st1">
    <path d="M85.986,159.061l3.044,2.786c2.061-1.261,3.291-2.061,3.291-2.061l-3.268-4.687l-53.706-49.163l1.635,8.265L85.986,159.061z"/>
    <path d="M93.839,122.334l-4.329,3.798l6.823,3.285c0.385-0.912,0.236-1.682,0.236-1.682l-1.59-8.021c1.042,0.95,0.623,1.942-1.14,2.62z"/>
    <path d="M113.562,128.984l-0.086,1.792c0,0.244-0.158,0.573-0.344,0.731l-4.415,3.87l6.421,3.097c0.098-1.212,0.029-1.684,0.029-1.684l-1.658-8.381C113.539,128.572,113.569,128.772,113.562,128.984z"/>
    <path d="M89.027,161.849c-0.028,0.016-17.706,9.707-22.22,11.814C75.621,169.805,84.421,164.668,89.027,161.849z"/>
    <path d="M42.297,179.666c4.773-0.158,9.747-0.932,14.864-2.408c2.932-0.849,6.062-2.04,9.2-3.398c-4.759,2.083-28.854,9.894-48.175-1.265C25.044,177.298,33.353,179.97,42.297,179.666z"/>
    <path d="M166.907,119.313c-1.864,8.462-6.816,15.918-13.918,20.898l-22.245,15.566l1.204,12.083l0.777-0.425l-0.346-3.393l27.361-19.87c0,0,4.234-4.678,6.13-8.903c1.956-4.36,2.764-7.891,2.764-7.891L166.907,119.313z"/>
    <path d="M141.199,167.546c0.09,0.992-0.341,2.016-1.123,2.711l-7.582,6.665l1.233,12.341l0.768-0.42l-0.365-3.656c0,0,5.688-5.058,7.582-6.665c1.578-1.338,1.044-3.179,1.044-3.179L141.199,167.546z"/>
    <path d="M12.45,257.832c18.261-19.63,25.793-28.076,56.21-51.075c13.238-10.01,36.03-23.383,36.03-23.383l3.151,4.52l27.937,67.447l4.701-6.335l-4.257-42.584c0,0,6.179-5.365,7.64-6.694c1.525-1.388,1.03-3.179,1.03-3.179l-1.551-7.837c-0.139,1.345-0.648,2.526-1.318,3.45l-7.64,6.694l4.257,42.584l-4.701,6.335l-27.821-67.28l-3.268-4.687c0,0-36.249,20.869-65.875,47.17c-2.354,2.09-4.972,4.563-7.703,7.263c-3.825,3.78-7.87,8.005-11.746,12.258c-4.577,5.023-8.913,10.082-12.336,14.483c-2.419,3.111-4.043,6.725-4.834,10.539C0.205,268.548,0,270.314,0,272.101c0,3.011,0.543,5.889,1.491,8.576C1.954,277.982,1.838,269.24,12.45,257.832z"/>
  </g>
</svg>
