<?xml version="1.0" encoding="utf-8"?>
<!-- Generator: Adobe Illustrator 27.5.0, SVG Export Plug-In . SVG Version: 6.00 Build 0)  -->
<svg version="1.1" xmlns="http://www.w3.org/2000/svg" xmlns:xlink="http://www.w3.org/1999/xlink" x="0px" y="0px"
	 viewBox="0 0 2475 1650" style="enable-background:new 0 0 2475 1650;" xml:space="preserve">
<g id="Background">
	<rect style="fill:#FFFFFF;" width="2475" height="1650"/>
</g>
<g id="Illustration">
	<g>
		<linearGradient id="SVGID_1_" gradientUnits="userSpaceOnUse" x1="129.738" y1="807.4332" x2="2221.4285" y2="807.4332">
			<stop  offset="0" style="stop-color:#DAE3FE"/>
			<stop  offset="1" style="stop-color:#E9EFFD"/>
		</linearGradient>
		<path style="fill:url(#SVGID_1_);" d="M1143.408,1469.254c0,0,773.323-64.344,969.832-281.907
			c196.509-217.564,96.911-406.493-73.116-446.593c-170.027-40.1-203.61-95.357-122.352-181.873
			c81.258-86.516,178.673-257.539-23.526-401.004c-202.199-143.465-393.607,108.202-563.603,93.277
			c-169.996-14.925-113.617-124.712-326.583-32.421C791.092,311.023,819.839,98.278,641.404,96.129
			C462.968,93.979,490.37,301.407,295.642,359.343c-333.046,99.089-52.508,523.25-106.022,640.607
			c-53.514,117.356-76.308,488.785,220.213,513.463C706.354,1538.091,1143.408,1469.254,1143.408,1469.254z"/>
		<path style="fill:#91B3FA;" d="M159.003,251.855c2.146,223.675,63.989,816.097,647.771,944.256
			c32.613,7.16,64.315-15.387,68.339-48.533c20.287-167.147,15.44-648.673-635.86-947.919
			C201.495,182.31,158.605,210.304,159.003,251.855z"/>
		<path style="fill:#BDD0FB;" d="M91.201,719.328c29.519,173.517,151.336,626.097,620.863,652.978
			c26.23,1.502,48.054-19.963,47.052-46.217c-5.051-132.391-68.776-505.908-612.064-657.308
			C115.555,660.004,85.717,687.094,91.201,719.328z"/>
		<g>
			<path style="fill:#BDD0FB;" d="M1867.162,1370.414c78.253,15.646,178.185-69.668,210.378-162.873
				c33.13-95.916-27.614-136.097-27.146-269.193c0.532-151.193,79.181-173.979,131.203-377.775
				c11.737-45.98,79.66-312.065-4.524-361.94c-77.837-46.115-296.475,86.23-334.795,255.62
				c-27.324,120.784,57.144,171.497,24.884,312.174c-28.307,123.435-102.7,125.221-131.204,244.31
				C1701.258,1155.717,1764.415,1349.871,1867.162,1370.414z"/>
			<path style="fill:#91B3FA;" d="M1872.845,1407.043c-21.095-162.898,20.057-414.212,58.295-596.355
				c41.398-197.199,88.383-358.051,88.853-359.654l6.512,1.911c-0.469,1.599-47.391,162.238-88.734,359.186
				c-38.124,181.612-79.167,432.095-58.195,594.042L1872.845,1407.043z"/>
		</g>
		<g>
			<path style="fill:#91B3FA;" d="M1947.831,1439.684c-102.648-53.484-137.783-237.143-79.434-296.833
				c39.425-40.331,95.963,2.09,150.507-39.717c69.64-53.379,18.412-153.909,73.163-284.291
				c46.594-110.955,158.358-215.947,223.67-194.404c68.366,22.55,104.375,189.867,45.988,290.561
				c-37.969,65.483-96.091,68.699-108.699,129.603c-14.631,70.669,56.055,102.897,56.44,171.41
				C2310.157,1339.084,2083.626,1510.44,1947.831,1439.684z"/>
			<path style="fill:#7D97F4;" d="M2003.223,1486.718c-0.612,0-1.234-0.135-1.822-0.421c-2.078-1.008-2.945-3.509-1.936-5.586
				c136.083-280.414,175.987-605.719,176.375-608.972c0.273-2.294,2.356-3.933,4.645-3.657c2.292,0.273,3.931,2.353,3.657,4.645
				c-0.389,3.267-40.464,329.969-177.155,611.633C2006.264,1485.851,2004.774,1486.718,2003.223,1486.718z"/>
			<path style="fill:#BDD0FB;" d="M2282.417,955.985c-0.429,0-0.862-0.138-1.227-0.422c-0.87-0.679-1.026-1.934-0.348-2.804
				c42.954-55.136,90.561-137.969,73.424-219.485c-10.206-48.547-38.934-73.867-39.222-74.117c-0.834-0.722-0.926-1.982-0.204-2.818
				c0.723-0.835,1.985-0.927,2.818-0.203c1.221,1.056,30.037,26.462,40.518,76.316c9.633,45.819,4.582,121.661-74.181,222.761
				C2283.6,955.719,2283.01,955.985,2282.417,955.985z"/>
			<path style="fill:#F0F0F0;" d="M1938.577,1415.196c-0.637,0-1.263-0.304-1.65-0.868
				c-66.012-96.341-88.523-170.782-66.906-221.253c19.219-44.873,67.746-53.224,68.233-53.304c1.092-0.17,2.114,0.564,2.292,1.653
				c0.177,1.087-0.562,2.115-1.651,2.293c-0.466,0.076-46.897,8.125-65.222,50.98c-21.006,49.132,1.383,122.266,66.549,217.372
				c0.624,0.911,0.392,2.154-0.518,2.778C1939.359,1415.083,1938.966,1415.196,1938.577,1415.196z"/>
		</g>
		<g>
			
				<linearGradient id="SVGID_00000147195117681159972600000001652664912894028416_" gradientUnits="userSpaceOnUse" x1="325.7111" y1="1008.3499" x2="2035.9921" y2="1008.3499">
				<stop  offset="0" style="stop-color:#09005D"/>
				<stop  offset="1" style="stop-color:#1A0F91"/>
			</linearGradient>
			<path style="fill:url(#SVGID_00000147195117681159972600000001652664912894028416_);" d="M325.711,561.373v837.017
				c0,68.856,54.87,125.164,123.703,126.939c305.719,7.883,1198.073,26.999,1489.098,22.708c50.02-0.737,90.54-40.765,91.983-90.769
				c5.612-194.451,14.726-662.039-19.003-879.122c-7.103-45.715-45.69-79.9-91.93-81.379
				c-256.155-8.195-1212.734-34.215-1503.623-27.682C365.771,470.211,325.711,511.191,325.711,561.373z"/>
			
				<linearGradient id="SVGID_00000096024653990741102640000008407368479521203378_" gradientUnits="userSpaceOnUse" x1="1474.5542" y1="624.1498" x2="-14.1249" y2="2329.4888">
				<stop  offset="0" style="stop-color:#4042E2"/>
				<stop  offset="1" style="stop-color:#4F52FF"/>
			</linearGradient>
			<path style="fill:url(#SVGID_00000096024653990741102640000008407368479521203378_);" d="M378.231,557.298v795.224
				c0,40.202,32.271,72.959,72.469,73.56l1445.943,20.05c39.853,0.596,72.52-31.467,72.668-71.324l2.715-788.119
				c0.106-28.499-22.598-51.849-51.089-52.543L436.347,500.58C404.482,499.804,378.231,525.424,378.231,557.298z"/>
		</g>
		<g>
			
				<linearGradient id="SVGID_00000121988801903812808130000003869434113993951676_" gradientUnits="userSpaceOnUse" x1="1174.5623" y1="1072.5735" x2="1075.5669" y2="1258.5647">
				<stop  offset="0" style="stop-color:#FE7062"/>
				<stop  offset="1" style="stop-color:#FF928E"/>
			</linearGradient>
			<path style="fill:url(#SVGID_00000121988801903812808130000003869434113993951676_);" d="M1057.01,1370.334
				c0,21.896-17.751,39.647-39.647,39.647c-21.896,0-43.485-16.599-43.485-38.495c0-21.896,21.589-40.798,43.485-40.798
				C1039.259,1330.688,1057.01,1348.438,1057.01,1370.334z"/>
			<path style="opacity:0.69;fill:#FFFFFF;" d="M1010.153,1394.72L1010.153,1394.72c-2.68-0.014-4.923-2.039-5.208-4.704
				l-3.574-33.395c-0.351-3.275,2.359-6.064,5.643-5.809l3.573,0.278c2.741,0.213,4.857,2.499,4.857,5.249v33.117
				C1015.444,1392.374,1013.07,1394.735,1010.153,1394.72z"/>
			<path style="opacity:0.69;fill:#FFFFFF;" d="M1021.5,1355.83v33.663c0,2.883,2.319,5.23,5.202,5.264l0.846,0.01
				c2.857,0.034,5.22-2.218,5.323-5.074l1.217-33.673c0.108-2.98-2.279-5.455-5.261-5.455h-2.062
				C1023.857,1350.566,1021.5,1352.923,1021.5,1355.83z"/>
			<g>
				
					<linearGradient id="SVGID_00000111885374943223973360000003184748250573676462_" gradientUnits="userSpaceOnUse" x1="1247.2201" y1="1111.2465" x2="1148.225" y2="1297.2373">
					<stop  offset="0" style="stop-color:#FE7062"/>
					<stop  offset="1" style="stop-color:#FF928E"/>
				</linearGradient>
				<path style="fill:url(#SVGID_00000111885374943223973360000003184748250573676462_);" d="M1140.511,1370.334
					c0,16.686-13.526,30.212-30.212,30.212c-16.686,0-33.137-12.649-33.137-29.335c0-16.685,16.451-31.089,33.137-31.089
					C1126.984,1340.122,1140.511,1353.649,1140.511,1370.334z"/>
				<path style="opacity:0.69;fill:#FFFFFF;" d="M1097.782,1357.323v26.913c0,2.305,1.854,4.182,4.159,4.209l0.676,0.008
					c2.285,0.027,4.174-1.773,4.256-4.057l0.972-26.921c0.086-2.383-1.822-4.361-4.206-4.361h-1.649
					C1099.666,1353.115,1097.782,1354.999,1097.782,1357.323z"/>
				<path style="opacity:0.69;fill:#FFFFFF;" d="M1113.972,1356.422l-1.43,28.171c-0.105,2.079,2.421,3.18,3.872,1.688
					l13.628-14.015c0.815-0.839,0.855-2.161,0.091-3.047l-12.198-14.155C1116.606,1353.521,1114.075,1354.389,1113.972,1356.422z"/>
			</g>
			<g>
				
					<linearGradient id="SVGID_00000006683448486223992450000009866213758079156609_" gradientUnits="userSpaceOnUse" x1="1105.1892" y1="1035.6493" x2="1006.1943" y2="1221.6399">
					<stop  offset="0" style="stop-color:#FE7062"/>
					<stop  offset="1" style="stop-color:#FF928E"/>
				</linearGradient>
				<path style="fill:url(#SVGID_00000006683448486223992450000009866213758079156609_);" d="M895.472,1370.334
					c0,16.686,13.526,30.212,30.212,30.212c16.686,0,33.137-12.649,33.137-29.335c0-16.685-16.451-31.089-33.137-31.089
					C908.999,1340.122,895.472,1353.649,895.472,1370.334z"/>
				<path style="opacity:0.69;fill:#FFFFFF;" d="M938.202,1357.323v26.913c0,2.305-1.854,4.182-4.159,4.209l-0.676,0.008
					c-2.284,0.027-4.173-1.773-4.256-4.057l-0.973-26.921c-0.086-2.383,1.822-4.361,4.206-4.361h1.649
					C936.317,1353.115,938.202,1354.999,938.202,1357.323z"/>
				<path style="opacity:0.69;fill:#FFFFFF;" d="M922.012,1356.422l1.43,28.171c0.106,2.079-2.421,3.18-3.872,1.688l-13.628-14.015
					c-0.815-0.839-0.855-2.161-0.092-3.047l12.198-14.155C919.377,1353.521,921.908,1354.389,922.012,1356.422z"/>
			</g>
			<g>
				<path style="fill:#7D97F4;" d="M490.517,1284.306l1.044,10.415c0.957,9.544,8.988,16.811,18.58,16.811h1009.207
					c10.313,0,18.673-8.36,18.673-18.673l0,0c0-10.238-8.244-18.567-18.481-18.672l-1010.251-10.415
					C498.164,1263.657,489.407,1273.236,490.517,1284.306z"/>
				
					<linearGradient id="SVGID_00000145025190420895198380000006470308443221303182_" gradientUnits="userSpaceOnUse" x1="490.4222" y1="1287.651" x2="1138.1195" y2="1287.651">
					<stop  offset="0" style="stop-color:#FE7062"/>
					<stop  offset="1" style="stop-color:#FF928E"/>
				</linearGradient>
				<path style="fill:url(#SVGID_00000145025190420895198380000006470308443221303182_);" d="M1136.379,1299.582
					c-1.181-9.698-2.629-19.521-4.018-29.387l-623.07-6.423c-11.127-0.115-19.884,9.464-18.773,20.535l1.043,10.415
					c0.957,9.544,8.989,16.811,18.58,16.811h627.979C1137.46,1307.345,1136.834,1303.322,1136.379,1299.582z"/>
				
					<linearGradient id="SVGID_00000109030691295235099570000008153301633525398963_" gradientUnits="userSpaceOnUse" x1="1107.6073" y1="1289.9047" x2="1175.1384" y2="1289.9047">
					<stop  offset="0" style="stop-color:#E1473D"/>
					<stop  offset="1" style="stop-color:#E9605A"/>
				</linearGradient>
				
					<circle style="fill:url(#SVGID_00000109030691295235099570000008153301633525398963_);" cx="1141.373" cy="1289.905" r="33.765"/>
			</g>
		</g>
		<path style="fill:#7D97F4;" d="M496.886,662.3l35.406,470.396c2.385,31.677,28.335,56.422,60.089,57.299l887.215,24.488
			c33.752,0.932,62.039-25.327,63.616-59.055l21.918-468.698c1.62-34.65-25.514-63.883-60.189-64.845l-944.538-26.185
			C523.673,594.681,494.128,625.661,496.886,662.3z"/>
		<g>
			
				<linearGradient id="SVGID_00000047034923225611276540000006004991170795850916_" gradientUnits="userSpaceOnUse" x1="955.951" y1="1082.792" x2="907.9465" y2="578.7417">
				<stop  offset="0" style="stop-color:#FE7062"/>
				<stop  offset="1" style="stop-color:#FF928E"/>
			</linearGradient>
			<polygon style="fill:url(#SVGID_00000047034923225611276540000006004991170795850916_);" points="583.38,711.021 
				651.584,1167.138 1222.795,1186.321 1252.635,657.737 			"/>
			
				<linearGradient id="SVGID_00000176727144736520951410000014865897336902022305_" gradientUnits="userSpaceOnUse" x1="1508.0558" y1="898.4776" x2="2201.1248" y2="805.4683">
				<stop  offset="0" style="stop-color:#FE7062"/>
				<stop  offset="1" style="stop-color:#FF928E"/>
			</linearGradient>
			<polygon style="fill:url(#SVGID_00000176727144736520951410000014865897336902022305_);" points="1531.846,742.992 
				1252.635,657.737 1222.795,1186.321 1412.489,1186.321 			"/>
			
				<linearGradient id="SVGID_00000168091911195780610710000015425521964043404195_" gradientUnits="userSpaceOnUse" x1="887.0209" y1="659.7255" x2="806.0128" y2="209.6817">
				<stop  offset="0" style="stop-color:#FE7062"/>
				<stop  offset="1" style="stop-color:#FF928E"/>
			</linearGradient>
			<path style="fill:url(#SVGID_00000168091911195780610710000015425521964043404195_);" d="M1068.276,399.235l184.358,258.502
				L583.38,711.021l-76.098-136.631c-9.023-16.201-0.554-36.578,17.294-41.611l512.529-144.51
				C1048.768,384.981,1061.24,389.369,1068.276,399.235z"/>
			
				<linearGradient id="SVGID_00000103946004932592341680000000201149620695475853_" gradientUnits="userSpaceOnUse" x1="1555.0742" y1="644.3252" x2="1363.0558" y2="860.3462">
				<stop  offset="0" style="stop-color:#FE7062"/>
				<stop  offset="1" style="stop-color:#FF928E"/>
			</linearGradient>
			<path style="fill:url(#SVGID_00000103946004932592341680000000201149620695475853_);" d="M1252.635,657.737l114.411,188.1
				c7.255,11.927,18.995,20.442,32.586,23.633l195.586,45.92c11.154,2.619,20.263-9.019,15.042-19.217l-78.413-153.18
				L1252.635,657.737z"/>
			
				<linearGradient id="SVGID_00000076596867369790120580000001013127545085819299_" gradientUnits="userSpaceOnUse" x1="1504.6218" y1="763.8741" x2="1405.6116" y2="964.8947">
				<stop  offset="0" style="stop-color:#E1473D"/>
				<stop  offset="1" style="stop-color:#E9605A"/>
			</linearGradient>
			<polygon style="fill:url(#SVGID_00000076596867369790120580000001013127545085819299_);" points="1279.756,1186.321 
				1356.437,1186.321 1389.043,1052.043 1308.051,1041.386 			"/>
			<path style="fill:#FFFFFF;" d="M1055.852,710.366l140.663-9.254c6.15-0.405,11.361,4.475,11.361,10.638v75.997
				c0,5.888-4.773,10.661-10.661,10.661h-140.663c-5.888,0-10.661-4.773-10.661-10.661v-66.743
				C1045.89,715.388,1050.247,710.735,1055.852,710.366z"/>
			
				<linearGradient id="SVGID_00000134940999942441057270000014445346602077842336_" gradientUnits="userSpaceOnUse" x1="1063.0076" y1="755.7809" x2="1065.0056" y2="755.7809">
				<stop  offset="0" style="stop-color:#09005D"/>
				<stop  offset="1" style="stop-color:#1A0F91"/>
			</linearGradient>
			<path style="opacity:0.74;fill:url(#SVGID_00000134940999942441057270000014445346602077842336_);" d="M1064.007,787.685
				c-0.552,0-0.999-0.447-0.999-0.999v-61.809c0-0.552,0.447-0.999,0.999-0.999s0.999,0.447,0.999,0.999v61.809
				C1065.006,787.238,1064.559,787.685,1064.007,787.685z"/>
			
				<linearGradient id="SVGID_00000048483809201129700040000008545178469187149206_" gradientUnits="userSpaceOnUse" x1="1071.6669" y1="755.7809" x2="1077.6609" y2="755.7809">
				<stop  offset="0" style="stop-color:#09005D"/>
				<stop  offset="1" style="stop-color:#1A0F91"/>
			</linearGradient>
			<path style="opacity:0.74;fill:url(#SVGID_00000048483809201129700040000008545178469187149206_);" d="M1074.664,789.682
				c-1.656,0-2.997-1.342-2.997-2.997v-61.809c0-1.655,1.341-2.997,2.997-2.997c1.656,0,2.997,1.342,2.997,2.997v61.809
				C1077.661,788.34,1076.319,789.682,1074.664,789.682z"/>
			
				<linearGradient id="SVGID_00000017486507911893042850000014454775386603001745_" gradientUnits="userSpaceOnUse" x1="1084.4548" y1="755.7809" x2="1090.4489" y2="755.7809">
				<stop  offset="0" style="stop-color:#09005D"/>
				<stop  offset="1" style="stop-color:#1A0F91"/>
			</linearGradient>
			<path style="opacity:0.74;fill:url(#SVGID_00000017486507911893042850000014454775386603001745_);" d="M1087.452,789.682
				c-1.656,0-2.997-1.342-2.997-2.997v-61.809c0-1.655,1.341-2.997,2.997-2.997c1.656,0,2.997,1.342,2.997,2.997v61.809
				C1090.449,788.34,1089.107,789.682,1087.452,789.682z"/>
			
				<linearGradient id="SVGID_00000044875165804373783540000002805615331439019449_" gradientUnits="userSpaceOnUse" x1="1100.5071" y1="755.7809" x2="1108.4991" y2="755.7809">
				<stop  offset="0" style="stop-color:#09005D"/>
				<stop  offset="1" style="stop-color:#1A0F91"/>
			</linearGradient>
			<path style="opacity:0.74;fill:url(#SVGID_00000044875165804373783540000002805615331439019449_);" d="M1104.503,790.682
				c-2.207,0-3.996-1.789-3.996-3.996v-61.809c0-2.207,1.789-3.996,3.996-3.996c2.207,0,3.996,1.789,3.996,3.996v61.809
				C1108.499,788.892,1106.71,790.682,1104.503,790.682z"/>
			
				<linearGradient id="SVGID_00000039128094093743433400000014685047751099240887_" gradientUnits="userSpaceOnUse" x1="1112.1635" y1="755.7809" x2="1118.1573" y2="755.7809">
				<stop  offset="0" style="stop-color:#09005D"/>
				<stop  offset="1" style="stop-color:#1A0F91"/>
			</linearGradient>
			<path style="opacity:0.74;fill:url(#SVGID_00000039128094093743433400000014685047751099240887_);" d="M1115.16,789.682
				c-1.656,0-2.997-1.342-2.997-2.997v-61.809c0-1.655,1.341-2.997,2.997-2.997s2.997,1.342,2.997,2.997v61.809
				C1118.157,788.34,1116.816,789.682,1115.16,789.682z"/>
			
				<linearGradient id="SVGID_00000039094465236150801190000007857444531661067405_" gradientUnits="userSpaceOnUse" x1="1127.083" y1="755.7809" x2="1133.077" y2="755.7809">
				<stop  offset="0" style="stop-color:#09005D"/>
				<stop  offset="1" style="stop-color:#1A0F91"/>
			</linearGradient>
			<path style="opacity:0.74;fill:url(#SVGID_00000039094465236150801190000007857444531661067405_);" d="M1130.08,789.682
				c-1.656,0-2.997-1.342-2.997-2.997v-61.809c0-1.655,1.341-2.997,2.997-2.997c1.656,0,2.997,1.342,2.997,2.997v61.809
				C1133.077,788.34,1131.736,789.682,1130.08,789.682z"/>
			
				<linearGradient id="SVGID_00000048461944881459853840000011482194354572696255_" gradientUnits="userSpaceOnUse" x1="1137.7404" y1="755.7809" x2="1143.7343" y2="755.7809">
				<stop  offset="0" style="stop-color:#09005D"/>
				<stop  offset="1" style="stop-color:#1A0F91"/>
			</linearGradient>
			<path style="opacity:0.74;fill:url(#SVGID_00000048461944881459853840000011482194354572696255_);" d="M1140.737,789.682
				c-1.656,0-2.997-1.342-2.997-2.997v-61.809c0-1.655,1.341-2.997,2.997-2.997s2.997,1.342,2.997,2.997v61.809
				C1143.734,788.34,1142.393,789.682,1140.737,789.682z"/>
			
				<linearGradient id="SVGID_00000101826131285368794600000004357549748641327799_" gradientUnits="userSpaceOnUse" x1="1151.7937" y1="755.2488" x2="1165.9131" y2="755.2488">
				<stop  offset="0" style="stop-color:#09005D"/>
				<stop  offset="1" style="stop-color:#1A0F91"/>
			</linearGradient>
			<path style="opacity:0.74;fill:url(#SVGID_00000101826131285368794600000004357549748641327799_);" d="M1157.792,791.614
				c-0.071,0-0.142-0.002-0.214-0.004c-3.309-0.115-5.896-2.892-5.78-6.201l2.132-60.744c0.116-3.307,2.905-5.875,6.2-5.779
				c3.309,0.115,5.896,2.892,5.78,6.201l-2.132,60.744C1163.665,789.068,1161.004,791.614,1157.792,791.614z"/>
			
				<linearGradient id="SVGID_00000022547901274820313220000001220488888939625101_" gradientUnits="userSpaceOnUse" x1="1171.8419" y1="755.7809" x2="1177.8359" y2="755.7809">
				<stop  offset="0" style="stop-color:#09005D"/>
				<stop  offset="1" style="stop-color:#1A0F91"/>
			</linearGradient>
			<path style="opacity:0.74;fill:url(#SVGID_00000022547901274820313220000001220488888939625101_);" d="M1174.839,789.682
				c-1.656,0-2.997-1.342-2.997-2.997v-61.809c0-1.655,1.341-2.997,2.997-2.997s2.997,1.342,2.997,2.997v61.809
				C1177.836,788.34,1176.494,789.682,1174.839,789.682z"/>
			
				<linearGradient id="SVGID_00000121261721836249578060000006707565037760924047_" gradientUnits="userSpaceOnUse" x1="1180.3676" y1="755.7809" x2="1186.3615" y2="755.7809">
				<stop  offset="0" style="stop-color:#09005D"/>
				<stop  offset="1" style="stop-color:#1A0F91"/>
			</linearGradient>
			<path style="opacity:0.74;fill:url(#SVGID_00000121261721836249578060000006707565037760924047_);" d="M1183.365,789.682
				c-1.656,0-2.997-1.342-2.997-2.997v-61.809c0-1.655,1.341-2.997,2.997-2.997s2.997,1.342,2.997,2.997v61.809
				C1186.361,788.34,1185.02,789.682,1183.365,789.682z"/>
			<path style="opacity:0.66;fill:#FFFFFF;" d="M1080.861,832.51c1.307-1.604-13.131,22.154-20.35,34
				c-1.736,2.849,0.317,6.496,3.653,6.496h6.92c2.472,0,4.429,2.09,4.266,4.557l-4.608,69.747c-0.163,2.467,1.794,4.557,4.266,4.557
				h15.188c2.469,0,4.425-2.086,4.266-4.55l-4.576-71.136c-0.175-2.726,2.215-4.914,4.915-4.5l0,0
				c3.516,0.539,6.114-3.201,4.382-6.307L1080.861,832.51z"/>
			<path style="opacity:0.66;fill:#FFFFFF;" d="M1127.751,832.51c1.307-1.604-13.131,22.154-20.35,34
				c-1.736,2.849,0.317,6.496,3.653,6.496h6.92c2.472,0,4.429,2.09,4.266,4.557l-4.608,69.747c-0.163,2.467,1.794,4.557,4.266,4.557
				h15.188c2.469,0,4.425-2.086,4.266-4.55l-4.576-71.136c-0.175-2.726,2.215-4.914,4.915-4.5l0,0
				c3.516,0.539,6.114-3.201,4.382-6.307L1127.751,832.51z"/>
			<rect x="1060.81" y="964.656" style="opacity:0.66;fill:#FFFFFF;" width="83.124" height="8.526"/>
		</g>
		<g>
			
				<linearGradient id="SVGID_00000086650796275272709850000016865389008585180078_" gradientUnits="userSpaceOnUse" x1="-529.3648" y1="1412.8473" x2="-434.9055" y2="1412.8473" gradientTransform="matrix(-1 0 0 1 -103.9297 0)">
				<stop  offset="0" style="stop-color:#FF928E"/>
				<stop  offset="1" style="stop-color:#FEB3B1"/>
			</linearGradient>
			<path style="fill:url(#SVGID_00000086650796275272709850000016865389008585180078_);" d="M425.435,1325.647
				c0,0-50.53,110.132-77.042,155.748c0,0-5.266,28.703,0,37.729l4.488,1.994l-20.943-0.623c0,0-1.861-38.608-0.408-40.765
				c1.453-2.157,4.359-2.015,4.359-2.015s8.98-71.145,34.987-86.329l25.204-86.809L425.435,1325.647z"/>
			
				<linearGradient id="SVGID_00000143619720432566395870000016920926899382990464_" gradientUnits="userSpaceOnUse" x1="-399.5276" y1="1201.6053" x2="-446.3071" y2="1505.6705" gradientTransform="matrix(-1 0 0 1 -103.9297 0)">
				<stop  offset="0" style="stop-color:#4042E2"/>
				<stop  offset="1" style="stop-color:#4F52FF"/>
			</linearGradient>
			<path style="fill:url(#SVGID_00000143619720432566395870000016920926899382990464_);" d="M361.825,1526.526
				c0.031,0.505-16.354,0.274-25.254,0.111c-3.286-0.06-6.088-2.37-6.788-5.581l-6.721-35.312c-0.639-3.356,1.492-6.616,4.822-7.377
				l3.752-0.858c0,0,5.353,7.342,3.668,14.254c-1.685,6.913-3.184,24.818,1.073,26.904c4.258,2.087,16.505,2.451,16.505,2.451
				S361.545,1521.978,361.825,1526.526z"/>
			
				<linearGradient id="SVGID_00000008855639448881753850000011315907337477903760_" gradientUnits="userSpaceOnUse" x1="-498.5074" y1="1186.3778" x2="-545.287" y2="1490.4441" gradientTransform="matrix(-1 0 0 1 -103.9297 0)">
				<stop  offset="0" style="stop-color:#4042E2"/>
				<stop  offset="1" style="stop-color:#4F52FF"/>
			</linearGradient>
			<path style="fill:url(#SVGID_00000008855639448881753850000011315907337477903760_);" d="M473.329,1527.166
				c1.657,0.944,0.973,3.474-0.934,3.455c-14.895-0.15-48.27-0.621-51.236-1.854c-3.829-1.592,1.396-15.351,6.894-20.008
				l30.359,9.908L473.329,1527.166z"/>
			
				<linearGradient id="SVGID_00000065772771495663450480000006062042464452805531_" gradientUnits="userSpaceOnUse" x1="-586.682" y1="1419.871" x2="-531.9828" y2="1419.871" gradientTransform="matrix(-1 0 0 1 -103.9297 0)">
				<stop  offset="0" style="stop-color:#FF928E"/>
				<stop  offset="1" style="stop-color:#FEB3B1"/>
			</linearGradient>
			<path style="fill:url(#SVGID_00000065772771495663450480000006062042464452805531_);" d="M482.752,1318.624
				c0,0-32.654,157.967-41.891,188.781l21.852,13.713c0,0-10.951-1.862-19.071-2.451c-8.121-0.589-15.59-9.908-15.59-9.908
				l2.618-4.175c0,0,8.189-157.107,6.195-174.947L482.752,1318.624z"/>
			
				<linearGradient id="SVGID_00000021807357348334403460000004662023027319258045_" gradientUnits="userSpaceOnUse" x1="421.7277" y1="1149.771" x2="117.243" y2="1310.2628">
				<stop  offset="0" style="stop-color:#FE7062"/>
				<stop  offset="1" style="stop-color:#FF928E"/>
			</linearGradient>
			<path style="fill:url(#SVGID_00000021807357348334403460000004662023027319258045_);" d="M496.105,1068.169
				c-12.516,3.471-54.919,14.626-81.391,14.17l16.253,91.718l-1.293,14.959l52.992-0.237c0,0,14.917-34.644,26.687-51.917
				c3.4-4.989,0.87-10.939-1.057-16.66l2.647-1.763c2.694-1.793,3.862-5.162,2.856-8.238l-12.904-39.482
				C500.224,1068.731,498.129,1067.608,496.105,1068.169z"/>
			
				<linearGradient id="SVGID_00000031923635922300442050000009230806278310572438_" gradientUnits="userSpaceOnUse" x1="-634.9768" y1="1172.7614" x2="-459.5551" y2="1370.598" gradientTransform="matrix(-1 0 0 1 -103.9297 0)">
				<stop  offset="0" style="stop-color:#09005D"/>
				<stop  offset="1" style="stop-color:#1A0F91"/>
			</linearGradient>
			<path style="fill:url(#SVGID_00000031923635922300442050000009230806278310572438_);" d="M486.911,1180.951l-1.042,9.063
				c0,0,14.975,44.848-7.488,149.595c0,0-48.65,13.783-88.635-19.197c0,0,11.28-98.866,14.36-103.471
				c15.345-22.938,25.568-27.925,25.568-27.925l0.461-9.901C430.135,1179.116,472.902,1186.848,486.911,1180.951z"/>
			
				<linearGradient id="SVGID_00000024715515566024402320000017810293098778374784_" gradientUnits="userSpaceOnUse" x1="-570.0999" y1="1062.0535" x2="-536.627" y2="1062.0535" gradientTransform="matrix(-1 0 0 1 -103.9297 0)">
				<stop  offset="0" style="stop-color:#FF928E"/>
				<stop  offset="1" style="stop-color:#FEB3B1"/>
			</linearGradient>
			<path style="fill:url(#SVGID_00000024715515566024402320000017810293098778374784_);" d="M466.168,1075.562
				c0.186-0.246-11.063-33.963-11.063-33.963l-16.113,1.461l-6.294,38.25C432.697,1081.311,457.949,1086.408,466.168,1075.562z"/>
			
				<linearGradient id="SVGID_00000138563988270563125490000004875285395673228223_" gradientUnits="userSpaceOnUse" x1="-516.9006" y1="1018.7964" x2="-273.2592" y2="1035.364" gradientTransform="matrix(-1 0 0 1 -103.9297 0)">
				<stop  offset="0" style="stop-color:#FF928E"/>
				<stop  offset="1" style="stop-color:#FEB3B1"/>
			</linearGradient>
			<path style="fill:url(#SVGID_00000138563988270563125490000004875285395673228223_);" d="M442.849,988.427
				c1.074,0.669,34.432,14.454,27.265,49.086c-0.423,2.046-1.789,3.781-3.698,4.632c-4.895,2.183-15.433,5.922-28.038,4.641
				c-17.475-1.776-28.925-32.27-28.438-41.143C410.427,996.769,432.201,981.796,442.849,988.427z"/>
			
				<linearGradient id="SVGID_00000100346775917809057030000018194575557739567291_" gradientUnits="userSpaceOnUse" x1="498.3686" y1="1045.3607" x2="608.5592" y2="1045.3607">
				<stop  offset="0" style="stop-color:#FF928E"/>
				<stop  offset="1" style="stop-color:#FEB3B1"/>
			</linearGradient>
			<path style="fill:url(#SVGID_00000100346775917809057030000018194575557739567291_);" d="M498.847,1087.377
				c-1.737-4.516,1.462-9.375,6.296-9.598c12.295-0.567,33.667-4.444,51.758-22.536c11.735-11.735,14.844-54.427,14.844-54.427
				s2.474-19.792,7.422-19.792c4.948,0,0,12.37,0,12.37s12.37,7.422,24.74-2.474c12.37-9.896-2.474,14.844-14.844,19.792
				c0,0,4.754,97.465-76.617,98.985c-2.98,0.055-5.692-1.763-6.762-4.545L498.847,1087.377z"/>
			
				<linearGradient id="SVGID_00000145051525252283050310000016613565590289122706_" gradientUnits="userSpaceOnUse" x1="452.3896" y1="995.7405" x2="336.6409" y2="1220.4526">
				<stop  offset="0" style="stop-color:#09005D"/>
				<stop  offset="1" style="stop-color:#1A0F91"/>
			</linearGradient>
			<path style="fill:url(#SVGID_00000145051525252283050310000016613565590289122706_);" d="M454.168,1058.35
				c0-6.519-1.364-12.717-3.82-18.329c-2.768-6.324-2.199-13.712,2.228-19.009c7.247-8.671,9.876-19.662,5.882-29.288
				c-6.236-15.028-26.23-21.011-44.658-13.364c-13.064,5.421-21.819,16.234-23.589,27.424c-1.017,6.43-4.46,12.168-9.634,16.119
				c-7.337,5.602-12.928,13.372-15.825,22.354c-1.958,6.07-5.895,11.295-11.436,14.456c-12.511,7.136-22.939,18.157-29.255,32.298
				c-15.841,35.469,0.164,77.105,35.749,92.999s77.275,0.025,93.116-35.444c8.801-19.705,7.761-41.308-0.997-59.347
				c-2.198-4.528-2.658-9.74-0.837-14.432C453.07,1069.688,454.168,1064.151,454.168,1058.35z"/>
		</g>
		<g>
			<path style="fill:#7D97F4;" d="M1628.69,1551.581c2.746,0,4.973-2.226,4.973-4.972v-594.33c0-2.746-2.226-4.972-4.973-4.972
				c-2.746,0-4.972,2.226-4.972,4.972v594.33C1623.718,1549.354,1625.944,1551.581,1628.69,1551.581z"/>
			<path style="fill:#7D97F4;" d="M1763.435,1551.581c2.746,0,4.972-2.226,4.972-4.972v-594.33c0-2.746-2.226-4.972-4.972-4.972
				c-2.746,0-4.972,2.226-4.972,4.972v594.33C1758.463,1549.354,1760.688,1551.581,1763.435,1551.581z"/>
			<path style="fill:#7D97F4;" d="M2094.485,1555.35c0.65,0,1.308-0.128,1.943-0.398c2.527-1.074,3.705-3.993,2.631-6.522
				l-254.266-598.097c-1.074-2.527-3.998-3.702-6.521-2.63c-2.527,1.074-3.705,3.993-2.631,6.522l254.266,598.098
				C2090.712,1554.214,2092.552,1555.35,2094.485,1555.35z"/>
			<path style="fill:#7D97F4;" d="M1937.428,1555.35c0.65,0,1.308-0.128,1.943-0.398c2.527-1.074,3.705-3.993,2.631-6.522
				l-254.266-598.097c-1.075-2.527-3.997-3.702-6.521-2.63c-2.527,1.074-3.705,3.993-2.631,6.522l254.266,598.098
				C1933.654,1554.214,1935.494,1555.35,1937.428,1555.35z"/>
			<path style="fill:#7D97F4;" d="M1620.97,957.748h232.914c3.87,0,7.008-3.138,7.008-7.008l0,0c0-3.87-3.138-7.008-7.008-7.008
				H1620.97c-3.871,0-7.008,3.137-7.008,7.008l0,0C1613.962,954.611,1617.1,957.748,1620.97,957.748z"/>
			<path style="fill:#7D97F4;" d="M1721.573,1048.704h157.522c2.747,0,4.973-2.226,4.973-4.972c0-2.746-2.226-4.972-4.973-4.972
				h-157.522c-2.746,0-4.973,2.226-4.973,4.972C1716.601,1046.479,1718.827,1048.704,1721.573,1048.704z"/>
			<rect x="1769.906" y="1151.876" style="fill:#7D97F4;" width="157.523" height="9.944"/>
			<rect x="1816.697" y="1264.991" style="fill:#7D97F4;" width="157.523" height="9.944"/>
			<path style="fill:#7D97F4;" d="M1865.767,1388.051h157.523c2.746,0,4.972-2.226,4.972-4.972c0-2.746-2.226-4.972-4.972-4.972
				h-157.523c-2.746,0-4.972,2.226-4.972,4.972C1860.795,1385.825,1863.021,1388.051,1865.767,1388.051z"/>
			<path style="fill:#7D97F4;" d="M1913.208,1501.169h157.523c2.746,0,4.972-2.226,4.972-4.972s-2.226-4.972-4.972-4.972h-157.523
				c-2.746,0-4.972,2.226-4.972,4.972S1910.461,1501.169,1913.208,1501.169z"/>
		</g>
		<g>
			<g>
				<g>
					<g>
						
							<linearGradient id="SVGID_00000100354542589514548110000011499990780133340077_" gradientUnits="userSpaceOnUse" x1="1683.3293" y1="908.6279" x2="1678.6626" y2="1029.2943">
							<stop  offset="0" style="stop-color:#09005D"/>
							<stop  offset="1" style="stop-color:#1A0F91"/>
						</linearGradient>
						<path style="fill:url(#SVGID_00000100354542589514548110000011499990780133340077_);" d="M1654.312,938.033
							c10.093,0.872,27.609,2.289,41.418,2.897c8.301,0.365,13.08-0.447,15.832-1.549c-0.005,0.31-0.013,0.603-0.026,0.876
							c-0.065,1.453-1.246,2.616-2.714,2.698c-26.093,1.456-46.845,0.504-54.232,0.054c-1.527-0.093-2.438-1.753-1.657-3.055
							C1653.325,939.302,1653.798,938.664,1654.312,938.033z"/>
						
							<linearGradient id="SVGID_00000101090542145461849470000005259919776535662467_" gradientUnits="userSpaceOnUse" x1="1688.0159" y1="844.7574" x2="1684.0157" y2="918.7574">
							<stop  offset="0" style="stop-color:#09005D"/>
							<stop  offset="1" style="stop-color:#1A0F91"/>
						</linearGradient>
						<path style="fill:url(#SVGID_00000101090542145461849470000005259919776535662467_);" d="M1695.73,940.93
							c-13.809-0.608-31.325-2.025-41.418-2.897c9.923-12.174,41.418-20.379,41.418-20.379h8.895
							c6.118,8.819,7.004,17.215,6.937,21.727C1708.81,940.483,1704.031,941.296,1695.73,940.93z"/>
						
							<linearGradient id="SVGID_00000159459347788096035560000003605245828058172551_" gradientUnits="userSpaceOnUse" x1="11709.6777" y1="913.216" x2="11726.2725" y2="913.216" gradientTransform="matrix(-1 0 0 1 13415.8018 0)">
							<stop  offset="0" style="stop-color:#FF928E"/>
							<stop  offset="1" style="stop-color:#FEB3B1"/>
						</linearGradient>
						<path style="fill:url(#SVGID_00000159459347788096035560000003605245828058172551_);" d="M1706.124,903.132l-0.833,16.473
							c-0.09,1.784-1.425,3.283-3.212,3.538c-1.778,0.254-4.158,0.287-6.682-0.554c-1.553-0.517-2.706-1.825-2.992-3.421
							l-2.876-16.036H1706.124z"/>
					</g>
					<g>
						<g>
							
								<linearGradient id="SVGID_00000173137663142929554550000017268113652652294816_" gradientUnits="userSpaceOnUse" x1="1817.5861" y1="924.0331" x2="1818.9196" y2="1062.032">
								<stop  offset="0" style="stop-color:#09005D"/>
								<stop  offset="1" style="stop-color:#1A0F91"/>
							</linearGradient>
							<path style="fill:url(#SVGID_00000173137663142929554550000017268113652652294816_);" d="M1821.661,940.807
								c4.377-0.611,6.357-2.884,7.187-5.315c0.005,0.022,0.011,0.044,0.016,0.065c0.644,2.564-0.849,5.221-3.833,6.485
								c-3.608,1.527-7.551,1.788-10.613,1.661c-3.285-0.135-6.3-1.495-7.958-3.67l-0.025-0.033
								C1809.734,941.633,1814.362,941.825,1821.661,940.807z"/>
							
								<linearGradient id="SVGID_00000127764831595627484920000010826317171463522707_" gradientUnits="userSpaceOnUse" x1="1801.9725" y1="801.2093" x2="1807.3059" y2="864.5425">
								<stop  offset="0" style="stop-color:#09005D"/>
								<stop  offset="1" style="stop-color:#1A0F91"/>
							</linearGradient>
							<path style="fill:url(#SVGID_00000127764831595627484920000010826317171463522707_);" d="M1801.025,903.026h7.336
								c11.174-0.228,18.191,23.339,20.488,32.466c-0.83,2.431-2.811,4.704-7.187,5.315c-7.299,1.018-11.928,0.826-15.225-0.806
								c-6.037-7.944-9.03-19.578-10.469-26.368C1794.332,905.91,1801.025,903.026,1801.025,903.026z"/>
						</g>
						
							<linearGradient id="SVGID_00000071541682035372084080000000837036902875871165_" gradientUnits="userSpaceOnUse" x1="11604.1777" y1="899.382" x2="11624.0098" y2="899.382" gradientTransform="matrix(-1 0 0 1 13415.8018 0)">
							<stop  offset="0" style="stop-color:#FF928E"/>
							<stop  offset="1" style="stop-color:#FEB3B1"/>
						</linearGradient>
						<path style="fill:url(#SVGID_00000071541682035372084080000000837036902875871165_);" d="M1807.418,887.737l4.073,16.201
							c0.5,1.986-0.451,4.041-2.288,4.984c-2.279,1.169-5.487,2.398-8.436,2.042c-1.387-0.167-2.538-1.144-2.997-2.449l-5.98-17.046
							L1807.418,887.737z"/>
					</g>
					
						<linearGradient id="SVGID_00000089549400501992047440000011719889331087488427_" gradientUnits="userSpaceOnUse" x1="1911.5759" y1="606.7103" x2="1832.9092" y2="686.7104">
						<stop  offset="0" style="stop-color:#09005D"/>
						<stop  offset="1" style="stop-color:#1A0F91"/>
					</linearGradient>
					<path style="fill:url(#SVGID_00000089549400501992047440000011719889331087488427_);" d="M1812.277,892.42
						c-5.068,4.496-21.552,5.089-21.552,5.089c-59.379-142.517-83.67-162.763-83.67-162.763
						c8.574,53.792,1.383,172.882,1.383,172.882c-9.799,4.324-22.432,0-22.432,0c-0.796-88.065-14.332-164.866-30.323-225.415
						c40.133-0.902,61.476-14.636,68.445-20.147C1757.582,715.999,1812.277,892.42,1812.277,892.42z"/>
					
						<linearGradient id="SVGID_00000160877514418231480440000013607559692400673676_" gradientUnits="userSpaceOnUse" x1="9498.458" y1="5656.1147" x2="9330.4668" y2="6037.0952" gradientTransform="matrix(-1 0 0 1 13415.8018 0)">
						<stop  offset="0" style="stop-color:#FE7062"/>
						<stop  offset="1" style="stop-color:#FF928E"/>
					</linearGradient>
					<path style="fill:url(#SVGID_00000160877514418231480440000013607559692400673676_);" d="M1713.936,498.171
						c7.596,37.891,4.874,105.708,3.086,136.642c-0.502,8.694,5.567,20.748,10.473,28.97c0.769,1.29,0.294,2.941-1.042,3.628
						c-8.213,4.221-36.038,17.304-68.287,18.932c-2.151,0.108-4.07-1.356-4.627-3.436c-23.921-89.318-51.706-146.394-51.706-146.394
						C1632.508,487.527,1713.936,498.171,1713.936,498.171z"/>
					
						<linearGradient id="SVGID_00000020362819468312988560000016431957085864684443_" gradientUnits="userSpaceOnUse" x1="1716.3401" y1="664.9263" x2="1644.3403" y2="824.259">
						<stop  offset="0" style="stop-color:#09005D"/>
						<stop  offset="1" style="stop-color:#1A0F91"/>
					</linearGradient>
					<path style="fill:url(#SVGID_00000020362819468312988560000016431957085864684443_);" d="M1703.003,731.372
						c0.337,0,0.679-0.091,0.988-0.279c0.896-0.548,1.18-1.716,0.635-2.611c-0.32-0.526-8-12.94-23.544-20.44
						c-0.945-0.453-2.082-0.061-2.54,0.886c-0.456,0.945-0.059,2.084,0.887,2.539c14.49,6.992,21.875,18.874,21.948,18.993
						C1701.737,731.047,1702.363,731.372,1703.003,731.372z"/>
					<g>
						
							<linearGradient id="SVGID_00000101813023777856122800000017721668616402406298_" gradientUnits="userSpaceOnUse" x1="11695.0391" y1="610.2963" x2="11624.4395" y2="672.8145" gradientTransform="matrix(-1 0 0 1 13415.8018 0)">
							<stop  offset="0" style="stop-color:#FF928E"/>
							<stop  offset="1" style="stop-color:#FEB3B1"/>
						</linearGradient>
						<path style="fill:url(#SVGID_00000101813023777856122800000017721668616402406298_);" d="M1761.584,606.917
							c-2.44,17.652-9.649,36.905-24.071,57.356l-5.482-4.469c0,0,6.329-25.677,2.731-54.817
							C1743.658,603.251,1754.164,605.04,1761.584,606.917z"/>
						
							<linearGradient id="SVGID_00000059998789608468465600000006736138321421544838_" gradientUnits="userSpaceOnUse" x1="9444.2773" y1="5632.2251" x2="9276.2861" y2="6013.2065" gradientTransform="matrix(-1 0 0 1 13415.8018 0)">
							<stop  offset="0" style="stop-color:#FE7062"/>
							<stop  offset="1" style="stop-color:#FF928E"/>
						</linearGradient>
						<path style="fill:url(#SVGID_00000059998789608468465600000006736138321421544838_);" d="M1705.451,544.923l8.485-46.752
							c0,0,56.69,43.333,47.648,108.746c-7.419-1.877-17.926-3.666-26.822-1.93C1732.17,583.995,1724.428,561.207,1705.451,544.923z
							"/>
					</g>
					<g>
						
							<linearGradient id="SVGID_00000173861037923927863100000005049580979835699899_" gradientUnits="userSpaceOnUse" x1="9569.3066" y1="5687.3613" x2="9401.3154" y2="6068.3428" gradientTransform="matrix(-1 0 0 1 13415.8018 0)">
							<stop  offset="0" style="stop-color:#FE7062"/>
							<stop  offset="1" style="stop-color:#FF928E"/>
						</linearGradient>
						<path style="fill:url(#SVGID_00000173861037923927863100000005049580979835699899_);" d="M1601.833,536.513l21.882,47.126
							c-3.538,28.452-18.822,40.754-35.302,45.472c-1.027-12.967-4.306-23.443-7.349-30.69
							C1602.121,576.681,1601.833,536.513,1601.833,536.513z"/>
						
							<linearGradient id="SVGID_00000029731156652630543650000011703357292743989926_" gradientUnits="userSpaceOnUse" x1="11827.3887" y1="616.2098" x2="11882.9902" y2="616.2098" gradientTransform="matrix(-1 0 0 1 13415.8018 0)">
							<stop  offset="0" style="stop-color:#FF928E"/>
							<stop  offset="1" style="stop-color:#FEB3B1"/>
						</linearGradient>
						<path style="fill:url(#SVGID_00000029731156652630543650000011703357292743989926_);" d="M1581.064,598.422
							c3.042,7.247,6.321,17.723,7.349,30.69c-43.968,17.059-55.601-16.025-55.601-16.025l8.126-1.434
							C1559.288,613.586,1572.106,607.67,1581.064,598.422z"/>
					</g>
					
						<linearGradient id="SVGID_00000131363003258618370720000007931414139849036455_" gradientUnits="userSpaceOnUse" x1="11773.3438" y1="467.6241" x2="11772.7363" y2="571.4547" gradientTransform="matrix(-1 0 0 1 13415.8018 0)">
						<stop  offset="0" style="stop-color:#FF928E"/>
						<stop  offset="1" style="stop-color:#FEB3B1"/>
					</linearGradient>
					<path style="fill:url(#SVGID_00000131363003258618370720000007931414139849036455_);" d="M1621.993,478.331l10.564,38.835
						c1.187,4.362,5.906,6.705,10.104,5.027c4.531-1.811,10.278-4.283,15.226-6.955c5.282-2.851,6.934-9.646,3.591-14.631
						l-21.963-32.748L1621.993,478.331z"/>
				</g>
				
					<linearGradient id="SVGID_00000003073564710493004460000018290203446766234003_" gradientUnits="userSpaceOnUse" x1="11618.8008" y1="656.9397" x2="11909.959" y2="656.9397" gradientTransform="matrix(-1 0 0 1 13415.8018 0)">
					<stop  offset="0" style="stop-color:#09005D"/>
					<stop  offset="1" style="stop-color:#1A0F91"/>
				</linearGradient>
				<path style="fill:url(#SVGID_00000003073564710493004460000018290203446766234003_);" d="M1512.66,587.099l270.695,98.522
					c11.353,4.132,16.78,17.059,11.779,28.057l-0.821,1.806c-4.425,9.73-15.926,13.998-25.628,9.51l-262.842-121.592
					L1512.66,587.099z"/>
				<g style="opacity:0.36;">
					<ellipse style="fill:#91B3FA;" cx="1388.237" cy="527.835" rx="133.628" ry="131.217"/>
				</g>
				
					<linearGradient id="SVGID_00000118396763092622941200000005952654329031248535_" gradientUnits="userSpaceOnUse" x1="11878.8721" y1="527.8351" x2="12176.2559" y2="527.8351" gradientTransform="matrix(-1 0 0 1 13415.8018 0)">
					<stop  offset="0" style="stop-color:#09005D"/>
					<stop  offset="1" style="stop-color:#1A0F91"/>
				</linearGradient>
				<path style="fill:url(#SVGID_00000118396763092622941200000005952654329031248535_);" d="M1239.546,527.835
					c0,80.639,66.571,146.01,148.692,146.01c82.12,0,148.692-65.37,148.692-146.01c0-80.638-66.572-146.009-148.692-146.009
					C1306.117,381.826,1239.546,447.197,1239.546,527.835z M1261.388,527.835c0-68.793,56.792-124.561,126.85-124.561
					c70.057,0,126.849,55.768,126.849,124.561c0,68.794-56.792,124.561-126.849,124.561
					C1318.18,652.396,1261.388,596.629,1261.388,527.835z"/>
				<g>
					<path style="fill:#91B3FA;" d="M1525.625,545.923c-0.042,0-0.085-0.002-0.128-0.008c-0.547-0.07-0.934-0.57-0.864-1.118
						c0.435-3.413,0.742-6.884,0.911-10.314c0.027-0.552,0.51-1.011,1.047-0.948c0.551,0.027,0.976,0.496,0.949,1.046
						c-0.172,3.483-0.483,7.005-0.925,10.47C1526.551,545.554,1526.121,545.923,1525.625,545.923z M1524.603,505.095
						c-0.475,0-0.895-0.34-0.982-0.823c-1.659-9.249-4.317-18.347-7.902-27.045l-0.002-0.004
						c-21.127-51.244-71.166-84.359-127.479-84.359c-26.264,0-51.793,7.296-73.828,21.096c-0.467,0.293-1.085,0.15-1.378-0.316
						c-0.293-0.468-0.151-1.085,0.316-1.378c22.355-14,48.25-21.401,74.89-21.401c57.129,0,107.893,33.599,129.328,85.6l0.002,0.004
						c3.638,8.827,6.336,18.064,8.019,27.451c0.098,0.542-0.264,1.061-0.807,1.159
						C1524.721,505.089,1524.661,505.095,1524.603,505.095z"/>
				</g>
				
					<linearGradient id="SVGID_00000158723851841631157400000001997959405311456436_" gradientUnits="userSpaceOnUse" x1="11722.9199" y1="641.7808" x2="11652.3193" y2="704.2991" gradientTransform="matrix(-1 0 0 1 13415.8018 0)">
					<stop  offset="0" style="stop-color:#FF928E"/>
					<stop  offset="1" style="stop-color:#FEB3B1"/>
				</linearGradient>
				<path style="fill:url(#SVGID_00000158723851841631157400000001997959405311456436_);" d="M1734.291,659.025l-25.59-2.086
					l-11.083,10.216c0,0,2.622,3.625,10.819,1.541c8.197-2.083,19.425-2.594,19.425-2.594s11.316,5.102,11.454-4.444
					L1734.291,659.025z"/>
				
					<linearGradient id="SVGID_00000115486077342895403710000017115072935890954650_" gradientUnits="userSpaceOnUse" x1="11877.083" y1="609.6799" x2="11896.9941" y2="609.6799" gradientTransform="matrix(-1 0 0 1 13415.8018 0)">
					<stop  offset="0" style="stop-color:#FF928E"/>
					<stop  offset="1" style="stop-color:#FEB3B1"/>
				</linearGradient>
				<path style="fill:url(#SVGID_00000115486077342895403710000017115072935890954650_);" d="M1536.071,619.14
					c-2.213,1.729-9.795-1.881-14.435-4.376c-2.261-1.216-3.357-3.86-2.58-6.308c1.116-3.521,2.977-8.066,5.269-8.639
					C1528.128,598.866,1545.191,612.015,1536.071,619.14z"/>
				<path style="fill:#91B3FA;" d="M1778.015,721.208c-0.415,0-0.801-0.26-0.944-0.673c-0.181-0.521,0.097-1.089,0.618-1.27
					c7.638-2.64,11.639-6.913,11.89-12.698c0.254-5.863-3.455-11.317-9.231-13.568l-32.502-12.675
					c-0.514-0.201-0.768-0.78-0.568-1.294c0.202-0.511,0.781-0.769,1.294-0.568l32.502,12.675
					c6.573,2.562,10.792,8.798,10.501,15.516c-0.2,4.597-2.658,10.845-13.233,14.501
					C1778.233,721.191,1778.123,721.208,1778.015,721.208z"/>
				<path style="fill:#91B3FA;" d="M1738.192,676.487c-0.121,0-0.244-0.021-0.363-0.068l-4.212-1.643
					c-0.514-0.201-0.769-0.78-0.568-1.294c0.201-0.513,0.781-0.773,1.294-0.568l4.212,1.643c0.514,0.201,0.769,0.78,0.568,1.294
					C1738.969,676.245,1738.591,676.487,1738.192,676.487z"/>
				<g>
					
						<linearGradient id="SVGID_00000067199138011465158540000014096539687141008554_" gradientUnits="userSpaceOnUse" x1="7610.6099" y1="4729.1313" x2="7635.9434" y2="4670.4648" gradientTransform="matrix(-1 0 0 1 11082.8018 0)">
						<stop  offset="0" style="stop-color:#FF928E"/>
						<stop  offset="1" style="stop-color:#FEB3B1"/>
					</linearGradient>
					<path style="fill:url(#SVGID_00000067199138011465158540000014096539687141008554_);" d="M1619.711,440.207
						c0,0-8.744,20.086-9.331,30.629c-0.587,10.543-2.859,17.384,9.331,19.506c12.19,2.123,22.459-3.95,28.022-14.451
						c0,0,8.717-16.182,6.761-22.809C1652.539,446.455,1619.711,440.207,1619.711,440.207z"/>
					
						<linearGradient id="SVGID_00000060730290320980720620000008813513675400220045_" gradientUnits="userSpaceOnUse" x1="9429.8066" y1="427.695" x2="9475.0693" y2="485.9713" gradientTransform="matrix(-1 0 0 1 11082.8018 0)">
						<stop  offset="0" style="stop-color:#09005D"/>
						<stop  offset="1" style="stop-color:#1A0F91"/>
					</linearGradient>
					<path style="fill:url(#SVGID_00000060730290320980720620000008813513675400220045_);" d="M1643.568,468.341h-1.541
						c0,0,6.349-13.024,0.77-15.312c-5.579-2.288-27.679-6.795-32.447-14.636c-4.596-7.56-0.497-17.324,5.636-20.057
						c0.388-0.173,0.846,0.01,1.044,0.385l0.508,0.961c0.348,0.659,1.32,0.559,1.527-0.156l0,0c0.196-0.678,1.111-0.827,1.484-0.227
						c1.46,2.345,5.412,6.158,16.012,8.115c15.041,2.776,24.984,8.863,25.229,19.258c0.015,0.659,0.719,1.022,1.282,0.679
						c1.11-0.677,2.887-0.994,5.262,1.003c4.13,3.473,2.44,12.481-6.614,19.891c-0.43,0.352-0.426,1.024,0.039,1.327
						c1.641,1.069,4.087,3.611-2.252,7c-6.485,3.467-10.323,3.089-11.771,2.718c-0.39-0.1-0.652-0.455-0.627-0.857l0.569-9.212
						c0.029-0.477-0.349-0.879-0.827-0.879H1643.568z"/>
					
						<linearGradient id="SVGID_00000174578363838601898560000000235115368824494725_" gradientUnits="userSpaceOnUse" x1="7596.6875" y1="4723.1162" x2="7622.0205" y2="4664.4492" gradientTransform="matrix(-1 0 0 1 11082.8018 0)">
						<stop  offset="0" style="stop-color:#FF928E"/>
						<stop  offset="1" style="stop-color:#FEB3B1"/>
					</linearGradient>
					<path style="fill:url(#SVGID_00000174578363838601898560000000235115368824494725_);" d="M1643.189,470.267
						c0,0,3.336-12.831,9.088-9.233c5.753,3.597-2.985,14.376-7.61,14.857L1643.189,470.267z"/>
				</g>
			</g>
		</g>
		<g>
			<path style="fill:#91B3FA;" d="M1709.142,1325.738c-11.487-43.137-35.977-78.273-65.933-99.697
				c-26.779-19.151-45.374-47.836-51.239-80.2c-0.617-3.402-1.379-6.821-2.291-10.245c-13.815-51.88-56.802-85.472-96.013-75.03
				c-39.212,10.442-59.8,60.963-45.986,112.843c2.825,10.609,6.87,20.449,11.854,29.305c15.905,28.262,21.091,61.472,13.275,92.96
				c-6.985,28.139-6.951,60.213,1.661,92.554c12.844,48.234,41.946,86.467,76.769,106.711c13.172,7.657,24.903,17.658,34.451,29.515
				c15.866,19.703,39.057,29.742,61.072,23.88c23.749-6.324,39.481-29.383,41.834-57.077c1.331-15.672,5.731-30.879,12.408-45.132
				C1716.767,1412.478,1720.756,1369.352,1709.142,1325.738z"/>
			<path style="fill:#7D97F4;" d="M1522.093,1112.1c14.253,32.923,27.436,66.278,40.271,99.77c3.212,8.371,6.29,16.794,9.394,25.206
				l4.655,12.619l4.549,12.658c3,8.451,6.117,16.86,9.021,25.344l8.715,25.452c5.593,17.042,11.331,34.036,16.607,51.182
				c2.65,8.569,5.467,17.084,7.943,25.707l7.546,25.829c9.713,34.538,18.563,69.336,25.634,104.514l-1.513,0.32l-6.293-26.119
				l-1.559-6.531l-1.722-6.492l-3.468-12.976l-3.443-12.98c-1.139-4.328-2.44-8.615-3.652-12.924
				c-2.482-8.603-4.895-17.224-7.433-25.811c-10.373-34.281-21.201-68.424-32.731-102.34c-5.895-16.914-11.645-33.876-17.658-50.75
				l-4.475-12.667l-4.581-12.63c-3.049-8.422-6.098-16.844-9.232-25.235c-6.125-16.835-12.371-33.628-18.753-50.368
				c-6.295-16.774-12.749-33.493-19.253-50.185L1522.093,1112.1z"/>
		</g>
		<g>
			<path style="fill:#BDD0FB;" d="M1576.009,1378.684c-22.29-23.54-50.083-37.483-76.597-40.792
				c-23.702-2.958-45.501-14.824-60.472-33.437c-1.574-1.956-3.246-3.873-5.015-5.742c-26.808-28.311-65.844-34.876-87.19-14.664
				c-21.346,20.212-16.918,59.548,9.89,87.859c5.481,5.789,11.474,10.667,17.722,14.592c19.94,12.526,34.772,31.914,40.726,54.696
				c5.321,20.36,16.477,40.803,33.189,58.452c24.924,26.322,56.729,40.646,85.933,41.52c11.046,0.331,21.989,2.654,32.185,6.916
				c16.944,7.081,35.197,5.468,47.182-5.88c12.928-12.242,14.941-32.385,6.825-50.86c-4.593-10.454-7.071-21.674-7.766-33.072
				C1610.976,1431.366,1598.545,1402.484,1576.009,1378.684z"/>
			<path style="fill:#91B3FA;" d="M1382.727,1307.089c20.506,16.07,40.481,32.785,60.281,49.708
				c4.952,4.229,9.836,8.536,14.733,12.828l7.345,6.439l7.292,6.5c4.844,4.352,9.748,8.638,14.543,13.045l14.386,13.22
				c9.479,8.935,19.032,17.79,28.344,26.901c4.662,4.548,9.412,9.005,13.983,13.649l13.772,13.864
				c18.175,18.669,35.891,37.803,52.607,57.793l-0.853,0.727l-13.075-14.482l-3.26-3.626l-3.35-3.545l-6.713-7.077l-6.698-7.088
				c-2.228-2.367-4.545-4.651-6.813-6.98c-4.567-4.628-9.097-9.293-13.694-13.891c-18.506-18.278-37.255-36.31-56.372-53.954
				c-9.626-8.749-19.176-17.58-28.863-26.263l-7.247-6.532l-7.302-6.471c-4.865-4.317-9.731-8.634-14.64-12.902
				c-9.745-8.62-19.552-17.17-29.428-25.641c-9.832-8.522-19.747-16.953-29.683-25.351L1382.727,1307.089z"/>
		</g>
	</g>
</g>
</svg>
